<svg xmlns="http://www.w3.org/2000/svg" viewBox="0 0 451.34 447.85"><defs><style>.cls-1,.cls-14{fill:#f5f5f5;}.cls-2{fill:#e6e6e6;}.cls-3{fill:#2196f3;}.cls-31,.cls-4{opacity:0.7;}.cls-10,.cls-15,.cls-22,.cls-23,.cls-28,.cls-31,.cls-35,.cls-5,.cls-7{fill:#fff;}.cls-10,.cls-11,.cls-12,.cls-14,.cls-15,.cls-21,.cls-22,.cls-23,.cls-28,.cls-31,.cls-35,.cls-6,.cls-7,.cls-8,.cls-9{isolation:isolate;}.cls-28,.cls-6{opacity:0.1;}.cls-19,.cls-21,.cls-7{opacity:0.4;}.cls-24,.cls-8{opacity:0.6;}.cls-14,.cls-15,.cls-16,.cls-9{opacity:0.3;}.cls-10,.cls-11{opacity:0.5;}.cls-12,.cls-18,.cls-22{opacity:0.2;}.cls-13{fill:none;}.cls-17{fill:#455a64;}.cls-20{fill:#37474f;}.cls-23{opacity:0.29;}.cls-25{fill:#e0e0e0;}.cls-26{fill:#ebebeb;}.cls-27{fill:#f0f0f0;}.cls-29{fill:#ffa8a7;}.cls-30{fill:#c8856a;}.cls-32{fill:#263238;}.cls-33{fill:#f28f8f;}.cls-34{fill:#734242;}.cls-35{opacity:0.32;}.cls-36{opacity:0.15;}</style></defs><g id="Layer_2" data-name="Layer 2"><g id="Layer_1-2" data-name="Layer 1"><g id="freepik--Floor--inject-2"><path class="cls-1" d="M384.67,224.73c-88.41-51-231.28-51-319.12,0s-87.33,133.81,1.12,184.85,231.28,51,319.12,0S473.12,275.78,384.67,224.73Z"></path></g><g id="freepik--Shadows--inject-2"><path class="cls-2" d="M317.75,329.65l-83.45-48.2-66.63,38.36a43.85,43.85,0,0,0-11.88-9.67c-23.76-13.72-62.15-13.72-85.76,0s-23.48,36,.28,49.67a71.4,71.4,0,0,0,16.25,6.71l-6.69,3.86a3,3,0,0,0,0,5.25l77.4,44.7a12.06,12.06,0,0,0,12.1,0L317.75,334.9a3,3,0,0,0,0-5.25Z"></path><path class="cls-2" d="M376.48,361c-7.2-4.16-18.84-4.16-26,0s-7.11,10.9.09,15.06,18.84,4.16,26,0S383.67,365.16,376.48,361Z"></path></g><g id="freepik--Elements--inject-2"><path class="cls-3" d="M384.61,47.92a83.5,83.5,0,0,1,18.65,14.25c12.21,12.18,18.7,24.76,20.53,40.05,1.74,14.44-3.56,24.78-7.72,35.38-2.85,7.24-5.23,15.44-4.43,25.27s7,18.23,9.63,28.45c3.27,12.59-3.31,17-11,18.87-5,1.19-12.13.76-15.82,4.17-3.43,3.15-5.09,8.52-6.45,13.75-2.72,10.4-3.88,23.78-12.75,27.65-5.13,2.24-12.07.61-19-3.19a56.47,56.47,0,0,1-7.24-4.71c-9.13-6.91-17.43-16.41-25.5-25.82-10.21-11.93-22.88-25.81-35.22-32.54a39.71,39.71,0,0,0-4.42-2.1c-13-5.22-24.92-5.51-37.06-6.94a54.42,54.42,0,0,1-19.93-6.14,47.74,47.74,0,0,1-14.37-12C202.17,149.54,198.94,132.25,202,121c5.5-20.6,33.61-21.72,28-51.08-1-5.23-4.39-10.45-6.24-15.84a65.76,65.76,0,0,1-3.44-17c-.65-10.58,1.76-19.8,6.85-25.68,11.5-13.29,33-10.47,53.73.87a119.62,119.62,0,0,1,16.22,10.7c7.73,6.07,15.68,12.49,23.6,16.79a46.14,46.14,0,0,0,8.41,3.66c14.43,4.47,25.32-2.6,39-1.09A45.57,45.57,0,0,1,384.61,47.92Z"></path><g class="cls-4"><path class="cls-5" d="M384.61,47.92a83.5,83.5,0,0,1,18.65,14.25c12.21,12.18,18.7,24.76,20.53,40.05,1.74,14.44-3.56,24.78-7.72,35.38-2.85,7.24-5.23,15.44-4.43,25.27s7,18.23,9.63,28.45c3.27,12.59-3.31,17-11,18.87-5,1.19-12.13.76-15.82,4.17-3.43,3.15-5.09,8.52-6.45,13.75-2.72,10.4-3.88,23.78-12.75,27.65-5.13,2.24-12.07.61-19-3.19a56.47,56.47,0,0,1-7.24-4.71c-9.13-6.91-17.43-16.41-25.5-25.82-10.21-11.93-22.88-25.81-35.22-32.54a39.71,39.71,0,0,0-4.42-2.1c-13-5.22-24.92-5.51-37.06-6.94a54.42,54.42,0,0,1-19.93-6.14,47.74,47.74,0,0,1-14.37-12C202.17,149.54,198.94,132.25,202,121c5.5-20.6,33.61-21.72,28-51.08-1-5.23-4.39-10.45-6.24-15.84a65.76,65.76,0,0,1-3.44-17c-.65-10.58,1.76-19.8,6.85-25.68,11.5-13.29,33-10.47,53.73.87a119.62,119.62,0,0,1,16.22,10.7c7.73,6.07,15.68,12.49,23.6,16.79a46.14,46.14,0,0,0,8.41,3.66c14.43,4.47,25.32-2.6,39-1.09A45.57,45.57,0,0,1,384.61,47.92Z"></path></g><path class="cls-3" d="M316.72,29.47A33.88,33.88,0,0,0,343.67,36a19.72,19.72,0,0,0,7.8-3.09,11,11,0,0,0,4.6-6.85,7.67,7.67,0,0,0-2.83-7.5C351,17,348.11,17,345.41,17.2s-5.47.68-8.06-.11a13.63,13.63,0,0,1-6.28-4.73c-1.69-2-3.12-4.32-5-6.24A20,20,0,0,0,311.61,0a11.1,11.1,0,0,0-5.69,1.43c-3.21,2-4.46,6.3-3.78,10C303.6,19.51,310.76,24.8,316.72,29.47Z"></path><path class="cls-3" d="M224.2,79.4c-.44,5.07-2.45,10.31-6.64,13.18-4.75,3.26-11.45,2.69-16.29-.43s-8-8.39-9.63-13.9c-2-6.5-2-14,1.77-19.62,4.07-6.16,14.16-9.18,20.34-4.38C221.07,59.93,225,70.35,224.2,79.4Z"></path><path class="cls-3" d="M374.35,36.34c2.33,1.35,5.09,2.5,7.64,1.65,2.76-.93,4.33-4.13,4-7-.74-6.14-9.34-11.85-15.39-9.87C362,23.91,369.93,33.77,374.35,36.34Z"></path><path class="cls-3" d="M202.24,40.73a9.39,9.39,0,0,1-.24-8.9,8.11,8.11,0,0,1,4.12-4.1,5.39,5.39,0,0,1,5.56.87,6.94,6.94,0,0,1,1.82,4.64c.2,3.08-.67,8-3.09,10.19S203.67,43,202.24,40.73Z"></path><g class="cls-4"><path class="cls-5" d="M316.72,29.47A33.88,33.88,0,0,0,343.67,36a19.72,19.72,0,0,0,7.8-3.09,11,11,0,0,0,4.6-6.85,7.67,7.67,0,0,0-2.83-7.5C351,17,348.11,17,345.41,17.2s-5.47.68-8.06-.11a13.63,13.63,0,0,1-6.28-4.73c-1.69-2-3.12-4.32-5-6.24A20,20,0,0,0,311.61,0a11.1,11.1,0,0,0-5.69,1.43c-3.21,2-4.46,6.3-3.78,10C303.6,19.51,310.76,24.8,316.72,29.47Z"></path><path class="cls-5" d="M224.2,79.4c-.44,5.07-2.45,10.31-6.64,13.18-4.75,3.26-11.45,2.69-16.29-.43s-8-8.39-9.63-13.9c-2-6.5-2-14,1.77-19.62,4.07-6.16,14.16-9.18,20.34-4.38C221.07,59.93,225,70.35,224.2,79.4Z"></path><path class="cls-5" d="M374.35,36.34c2.33,1.35,5.09,2.5,7.64,1.65,2.76-.93,4.33-4.13,4-7-.74-6.14-9.34-11.85-15.39-9.87C362,23.91,369.93,33.77,374.35,36.34Z"></path><path class="cls-5" d="M202.24,40.73a9.39,9.39,0,0,1-.24-8.9,8.11,8.11,0,0,1,4.12-4.1,5.39,5.39,0,0,1,5.56.87,6.94,6.94,0,0,1,1.82,4.64c.2,3.08-.67,8-3.09,10.19S203.67,43,202.24,40.73Z"></path></g><path class="cls-3" d="M307.92,47.67c-5.52-7.81-18.05-12.54-30.25-12.22-12.53.33-23.85,5.38-30.7,12.57-4.92,5.16-7.52,11.42-6.61,17.83,1.85,12.9,17.47,23.48,35.24,24.89a26.31,26.31,0,0,0,8.89-.5c2.81-.74,5.3-2.37,6-4.46s-.47-4.12,0-6.15c.93-3.81,6.72-5.73,10.94-8.15C310.91,66,313.44,55.48,307.92,47.67ZM284.32,86.4c-.73,1-2.43,1.32-4,1.38a13.09,13.09,0,0,1-6.43-1.24c-3.57-1.87-4.2-7,1.13-7.78,4.32-.6,8.71,2.84,9.5,5.58A2.25,2.25,0,0,1,284.32,86.4Z"></path><path class="cls-5" d="M307.92,45.1c-5.52-7.81-18.05-12.55-30.25-12.23-12.53.34-23.85,5.38-30.7,12.57-4.92,5.16-7.52,11.43-6.61,17.84,1.85,12.9,17.47,23.47,35.24,24.89a26.31,26.31,0,0,0,8.89-.5c2.81-.75,5.3-2.37,6-4.47s-.47-4.12,0-6.14c.93-3.81,6.72-5.73,10.94-8.16C310.91,63.43,313.44,52.91,307.92,45.1Zm-23.6,38.73c-.73,1-2.43,1.31-4,1.37A12.87,12.87,0,0,1,273.89,84c-3.57-1.87-4.2-7,1.13-7.77,4.32-.61,8.71,2.84,9.5,5.57A2.27,2.27,0,0,1,284.32,83.83Z"></path><path class="cls-3" d="M251.35,66.8c0,.45.06.93.09,1.45a2.7,2.7,0,0,1-.16,1.32c-.44.93-1.84,1.74-1.72,2.82.13,1.25,2,1.27,3.27,1.1l6.51-.82a12.54,12.54,0,0,0,3.53-.78c1.05-.48,1.86-1.34,1.67-2.21s-1.31-1.54-2.47-1.88c-1.46-.44-3.09-.56-4.38-1.26-1-.54-1.39-1.36-2.24-2-1.31-.92-2.41-.37-3.33.49A2.27,2.27,0,0,0,251.35,66.8Z"></path><path class="cls-3" d="M250.19,56.29a4.3,4.3,0,0,0,4,2.38,8.11,8.11,0,0,0,2.74-.72l4.73-1.9a6.42,6.42,0,0,0,1.88-1c2.57-2.29-1.6-4.58-4.26-5.29a9.27,9.27,0,0,0-8.21,2.34A3.79,3.79,0,0,0,250.19,56.29Z"></path><path class="cls-3" d="M269.25,40.59c.94.61,1.28,1.63,2.37,2.1a13.78,13.78,0,0,0,3.32.41c2,.3,3.43,1.8,3.12,3.22s-2.33,2.54-4.33,2.39S270,47.31,268,47.06s-4.1.43-5.9-.52c-1.35-.72-1.5-1.67-.84-2.72C262.41,42,266,38.49,269.25,40.59Z"></path><path class="cls-3" d="M286.56,49.13a8.08,8.08,0,0,0,6.35,1.55,13.88,13.88,0,0,0,5.52-2.59,6.63,6.63,0,0,0,1.84-1.58,1.48,1.48,0,0,0-.08-2c-1-1-3.35-1-4.83-1.34-1.32-.3-2.52-.85-3.85-1.14-2.94-.64-5.72,1.38-6.23,3.34A3.7,3.7,0,0,0,286.56,49.13Z"></path><path class="cls-3" d="M292.42,53.42a9.22,9.22,0,0,0-5.07,2.6,3.28,3.28,0,0,0-.23,4.34c.45.55,1.1,1,1.61,1.52a2,2,0,0,1,.73,1.78c-.31,1.17-2.43,2-2.13,3.11.17.64,1.07,1.08,2,1.14a7.13,7.13,0,0,0,2.63-.4c3.8-1.13,7.32-3,9.07-5.69a5.9,5.9,0,0,0-.52-7.42C298.81,52.56,295,52.88,292.42,53.42Z"></path><path class="cls-3" d="M268.46,60.54a12.15,12.15,0,0,0,4.76,2.11,8.57,8.57,0,0,0,3,.5c1.54-.11,2.87-1.09,3-2.19s-.74-2-.6-3,1.09-1.81,1.77-2.69,1-2.08,0-2.77a3.69,3.69,0,0,0-3.18-.09c-1.38.55-2.18,1.67-3.58,2.17-1.14.4-2.26,0-3.41.23a3.25,3.25,0,0,0-1.81,5.69Z"></path><path class="cls-6" d="M251.35,66.8c0,.45.06.93.09,1.45a2.7,2.7,0,0,1-.16,1.32c-.44.93-1.84,1.74-1.72,2.82.13,1.25,2,1.27,3.27,1.1l6.51-.82a12.54,12.54,0,0,0,3.53-.78c1.05-.48,1.86-1.34,1.67-2.21s-1.31-1.54-2.47-1.88c-1.46-.44-3.09-.56-4.38-1.26-1-.54-1.39-1.36-2.24-2-1.31-.92-2.41-.37-3.33.49A2.27,2.27,0,0,0,251.35,66.8Z"></path><path class="cls-7" d="M250.19,56.29a4.3,4.3,0,0,0,4,2.38,8.11,8.11,0,0,0,2.74-.72l4.73-1.9a6.42,6.42,0,0,0,1.88-1c2.57-2.29-1.6-4.58-4.26-5.29a9.27,9.27,0,0,0-8.21,2.34A3.79,3.79,0,0,0,250.19,56.29Z"></path><path class="cls-8" d="M269.25,40.59c.94.61,1.28,1.63,2.37,2.1a13.78,13.78,0,0,0,3.32.41c2,.3,3.43,1.8,3.12,3.22s-2.33,2.54-4.33,2.39S270,47.31,268,47.06s-4.1.43-5.9-.52c-1.35-.72-1.5-1.67-.84-2.72C262.41,42,266,38.49,269.25,40.59Z"></path><path class="cls-7" d="M286.56,49.13a8.08,8.08,0,0,0,6.35,1.55,13.88,13.88,0,0,0,5.52-2.59,6.63,6.63,0,0,0,1.84-1.58,1.48,1.48,0,0,0-.08-2c-1-1-3.35-1-4.83-1.34-1.32-.3-2.52-.85-3.85-1.14-2.94-.64-5.72,1.38-6.23,3.34A3.7,3.7,0,0,0,286.56,49.13Z"></path><path class="cls-9" d="M292.42,53.42a9.22,9.22,0,0,0-5.07,2.6,3.28,3.28,0,0,0-.23,4.34c.45.55,1.1,1,1.61,1.52a2,2,0,0,1,.73,1.78c-.31,1.17-2.43,2-2.13,3.11.17.64,1.07,1.08,2,1.14a7.13,7.13,0,0,0,2.63-.4c3.8-1.13,7.32-3,9.07-5.69a5.9,5.9,0,0,0-.52-7.42C298.81,52.56,295,52.88,292.42,53.42Z"></path><path class="cls-10" d="M307.92,45.1c-5.52-7.81-18.05-12.55-30.25-12.23-12.53.34-23.85,5.38-30.7,12.57-4.6,4.83-7.18,10.62-6.74,16.6a18,18,0,0,0,.13,3.81c1.85,12.9,17.47,23.48,35.24,24.89a26.31,26.31,0,0,0,8.89-.5c2.81-.74,5.3-2.37,6-4.46a6.9,6.9,0,0,0,.08-2.93,9.4,9.4,0,0,0-.07-3.13v-.09c.93-3.81,6.72-5.73,10.94-8.15,6.68-3.83,9.92-10.13,9.37-16.25A15.24,15.24,0,0,0,307.92,45.1ZM280.35,85.2A12.87,12.87,0,0,1,273.92,84a5.17,5.17,0,0,1-2.53-2.85c.47-1.14,1.63-2.06,3.66-2.35a9.66,9.66,0,0,1,9.29,5h0C283.59,84.79,281.89,85.14,280.35,85.2Z"></path><path class="cls-3" d="M283.19,35.19A7.76,7.76,0,0,1,275.77,32a12.92,12.92,0,0,1-2.23-8.07c0,1.43,1.67,2.71,3,3.13a37,37,0,0,1,4.16,1,5.35,5.35,0,0,1,2.78,2.87A6.08,6.08,0,0,1,283.19,35.19Z"></path><path class="cls-11" d="M283.19,35.19A7.76,7.76,0,0,1,275.77,32a12.92,12.92,0,0,1-2.23-8.07c0,1.43,1.67,2.71,3,3.13a37,37,0,0,1,4.16,1,5.35,5.35,0,0,1,2.78,2.87A6.08,6.08,0,0,1,283.19,35.19Z"></path><path class="cls-3" d="M327.51,68.52h0a.78.78,0,0,0-.14-1.09L285,34a1.78,1.78,0,0,0-2.5.31h0a1.78,1.78,0,0,0,.33,2.48l0,0,43.55,31.89A.78.78,0,0,0,327.51,68.52Z"></path><path class="cls-12" d="M327.51,68.52h0a.78.78,0,0,0-.14-1.09L285,34a1.78,1.78,0,0,0-2.5.31h0a1.78,1.78,0,0,0,.33,2.48l0,0,43.55,31.89A.78.78,0,0,0,327.51,68.52Z"></path><path class="cls-7" d="M327.37,67.43,285,34a1.79,1.79,0,0,0-1.36-.36,4.89,4.89,0,0,0-.15-2.68,5.35,5.35,0,0,0-2.78-2.87,37,37,0,0,0-4.16-1c-1.36-.42-3-1.7-3-3.13a13,13,0,0,0,2.2,8,8,8,0,0,0,6.38,3.32,1.76,1.76,0,0,0,.72,1.49L326.42,68.7a.79.79,0,0,0,1.09-.16.78.78,0,0,0-.12-1.09Z"></path><polygon class="cls-13" points="331.1 168.82 371.4 192.08 371.31 222.88 331.02 199.62 331.1 168.82"></polygon><polygon class="cls-3" points="331.02 199.62 331.1 168.82 327.38 166.67 327.28 201.79 371.3 227.2 371.31 222.88 331.02 199.62"></polygon><path class="cls-3" d="M326.67,156.72l-3.73,2.17-.13,45.47,53,30.62,3.74-2.16.12-45.48Zm44.69,66.16v4.32l-44-25.41.1-35.12,3.72,2.15,40.3,23.26Z"></path><path class="cls-10" d="M326.67,156.72l-3.73,2.17-.13,45.47,53,30.62,3.74-2.16.12-45.48Zm44.69,66.16v4.32l-44-25.41.1-35.12,3.72,2.15,40.3,23.26Z"></path><polygon class="cls-14" points="322.89 158.89 326.62 156.72 379.66 187.34 375.92 189.51 322.89 158.89"></polygon><polygon class="cls-6" points="379.66 187.34 379.53 232.81 375.79 234.98 375.92 189.51 379.66 187.34"></polygon><polygon class="cls-14" points="331.1 168.82 331.02 199.62 327.28 201.79 327.38 166.67 331.1 168.82"></polygon><polygon class="cls-15" points="371.31 222.88 371.3 227.2 327.28 201.79 331.02 199.62 371.31 222.88"></polygon><g class="cls-16"><polygon class="cls-1" points="343.91 180.51 332.92 189.17 332.89 197.62 369.44 218.72 369.47 210.27 362.5 196.43 356.25 201.29 358.46 208.16 355.25 202.06 343.91 180.51"></polygon><path class="cls-1" d="M355.91,184.77c-1.72-1-3.12-.19-3.12,1.78a6.81,6.81,0,0,0,3.1,5.38c1.72,1,3.12.2,3.13-1.78A6.9,6.9,0,0,0,355.91,184.77Z"></path></g><polygon class="cls-17" points="300.21 111.34 300.16 129.92 300.21 111.34 300.21 111.34"></polygon><path class="cls-3" d="M331.92,117.2,291.74,94a2.17,2.17,0,0,0-2.13-.23h0l-4.85,2.82h0a2.07,2.07,0,0,0-1,2l-.07,25a6.68,6.68,0,0,0,3,5.26l40.18,23.2a2,2,0,0,0,2.29.11h0l4.79-2.77h0a2.13,2.13,0,0,0,.86-1.93l.07-25A6.71,6.71,0,0,0,331.92,117.2Zm-31.76,12.72,0-18.58h0l14,17.38Z"></path><path class="cls-3" d="M331.92,117.2,291.74,94a2.17,2.17,0,0,0-2.13-.23h0l-4.85,2.82h0a2.07,2.07,0,0,0-1,2l-.07,25a6.68,6.68,0,0,0,3,5.26l40.18,23.2a2,2,0,0,0,2.29.11h0l4.79-2.77h0a2.13,2.13,0,0,0,.86-1.93l.07-25A6.71,6.71,0,0,0,331.92,117.2Zm-31.76,12.72,0-18.58h0l14,17.38Z"></path><polygon class="cls-5" points="300.21 111.34 300.21 111.34 300.16 129.92 314.19 128.72 300.21 111.34"></polygon><path class="cls-15" d="M331.92,117.2,291.74,94a2.17,2.17,0,0,0-2.13-.23h0l-4.85,2.82h0a2.21,2.21,0,0,1,2.07.25L327,120a6.23,6.23,0,0,1,2.2,2.36l4.94-2.85A6.21,6.21,0,0,0,331.92,117.2Z"></path><path class="cls-6" d="M329.18,122.42a6.06,6.06,0,0,1,.84,2.9l-.07,25a2.21,2.21,0,0,1-.77,1.85h0L334,149.4h0a2.13,2.13,0,0,0,.86-1.93l.07-25a6,6,0,0,0-.84-2.88Z"></path><path class="cls-7" d="M331.92,117.2,291.74,94a2.17,2.17,0,0,0-2.13-.23h0l-4.85,2.82h0a2.07,2.07,0,0,0-1,2l-.07,25a6.68,6.68,0,0,0,3,5.26l40.18,23.2a2,2,0,0,0,2.29.11h0l4.79-2.77h0a2.13,2.13,0,0,0,.86-1.93l.07-25A6.71,6.71,0,0,0,331.92,117.2Z"></path><path class="cls-3" d="M267.75,124.86c-6.91-16.91-20.5-27.36-30.36-23.34s-12.27,21-5.36,37.92,20.49,27.37,30.36,23.34S274.67,141.78,267.75,124.86Zm-17,9.51c-.71.29-1.7-.46-2.2-1.69s-.32-2.45.39-2.75,1.7.47,2.2,1.7.37,2.45-.35,2.74Z"></path><path class="cls-15" d="M267.75,124.86c-6.91-16.91-20.5-27.36-30.36-23.34s-12.27,21-5.36,37.92,20.49,27.37,30.36,23.34S274.67,141.78,267.75,124.86Zm-17,9.51c-.71.29-1.7-.46-2.2-1.69s-.32-2.45.39-2.75,1.7.47,2.2,1.7.37,2.45-.35,2.74Z"></path><path class="cls-3" d="M257.67,129c-3-7.38-8.93-11.94-13.23-10.18s-5.35,9.16-2.34,16.53,8.94,11.93,13.24,10.18S260.67,136.35,257.67,129Zm-6.88,5.39c-.71.29-1.7-.46-2.2-1.69s-.32-2.45.39-2.75,1.7.47,2.2,1.7.33,2.43-.39,2.72Z"></path><g class="cls-16"><path d="M257.67,129c-3-7.38-8.93-11.94-13.23-10.18s-5.35,9.16-2.34,16.53,8.94,11.93,13.24,10.18S260.67,136.35,257.67,129Zm-6.88,5.39c-.71.29-1.7-.46-2.2-1.69s-.32-2.45.39-2.75,1.7.47,2.2,1.7.33,2.43-.39,2.72Z"></path></g><g class="cls-18"><path class="cls-5" d="M257.67,129c-3-7.38-8.93-11.94-13.23-10.18s-5.35,9.16-2.34,16.53,8.94,11.93,13.24,10.18S260.67,136.35,257.67,129Zm-6.88,5.39c-.71.29-1.7-.46-2.2-1.69s-.32-2.45.39-2.75,1.7.47,2.2,1.7.33,2.43-.39,2.72Z"></path></g><path class="cls-3" d="M284.39,139l-.05,18.26a2.22,2.22,0,0,1-2.18,2.26,1.72,1.72,0,0,1-.32,0,4.85,4.85,0,0,1-2.35-.67,4.7,4.7,0,0,1-2.11-2.41c-.58-1.69.47-3.06,2.34-3a4.81,4.81,0,0,1,2.34.67,5.38,5.38,0,0,1,1.19.93V139Z"></path><path class="cls-3" d="M311.67,181a2.21,2.21,0,0,1-2.17,2.25,1.83,1.83,0,0,1-.33,0,5,5,0,0,1-4.46-3.08c-.58-1.69.47-3.05,2.35-3.05a5.07,5.07,0,0,1,2.34.67,5.63,5.63,0,0,1,1.18.93V167.13l-9.8-1.62v13.11a2.19,2.19,0,0,1-2.15,2.25,1.37,1.37,0,0,1-.35,0,5,5,0,0,1-4.46-3.07,2.17,2.17,0,0,1,2.35-3,4.85,4.85,0,0,1,2.35.67,6.17,6.17,0,0,1,1.17.92l.05-16,12,2v5Zm-1.05-14.86v-2.47l-9.8-1.61v2.43l9.81,1.65"></path><path class="cls-3" d="M292.72,150.78c2.21,1.28,1.06,6.84,4.32,9.93a2.79,2.79,0,0,1-.53-.24,7.38,7.38,0,0,1-2.61-3.73c-.58-1.45-1-2.79-1.5-3.09a.45.45,0,0,0-.42,0v15.17a2.22,2.22,0,0,1-2.18,2.26,1.72,1.72,0,0,1-.32,0,4.75,4.75,0,0,1-2.35-.68A4.57,4.57,0,0,1,285,168c-.59-1.7.46-3.06,2.34-3.05a4.85,4.85,0,0,1,2.35.67,5.8,5.8,0,0,1,1.18.91v-16l1.1,0A2.35,2.35,0,0,1,292.72,150.78Z"></path><g class="cls-19"><path class="cls-5" d="M284.39,139l-.05,18.26a2.22,2.22,0,0,1-2.18,2.26,1.72,1.72,0,0,1-.32,0,4.85,4.85,0,0,1-2.35-.67,4.7,4.7,0,0,1-2.11-2.41c-.58-1.69.47-3.06,2.34-3a4.81,4.81,0,0,1,2.34.67,5.38,5.38,0,0,1,1.19.93V139Z"></path><path class="cls-5" d="M311.67,181a2.21,2.21,0,0,1-2.17,2.25,1.83,1.83,0,0,1-.33,0,5,5,0,0,1-4.46-3.08c-.58-1.69.47-3.05,2.35-3.05a5.07,5.07,0,0,1,2.34.67,5.63,5.63,0,0,1,1.18.93V167.13l-9.8-1.62v13.11a2.19,2.19,0,0,1-2.15,2.25,1.37,1.37,0,0,1-.35,0,5,5,0,0,1-4.46-3.07,2.17,2.17,0,0,1,2.35-3,4.85,4.85,0,0,1,2.35.67,6.17,6.17,0,0,1,1.17.92l.05-16,12,2v5Zm-1.05-14.86v-2.47l-9.8-1.61v2.43l9.81,1.65"></path><path class="cls-5" d="M292.72,150.78c2.21,1.28,1.06,6.84,4.32,9.93a2.79,2.79,0,0,1-.53-.24,7.38,7.38,0,0,1-2.61-3.73c-.58-1.45-1-2.79-1.5-3.09a.45.45,0,0,0-.42,0v15.17a2.22,2.22,0,0,1-2.18,2.26,1.72,1.72,0,0,1-.32,0,4.75,4.75,0,0,1-2.35-.68A4.57,4.57,0,0,1,285,168c-.59-1.7.46-3.06,2.34-3.05a4.85,4.85,0,0,1,2.35.67,5.8,5.8,0,0,1,1.18.91v-16l1.1,0A2.35,2.35,0,0,1,292.72,150.78Z"></path></g><path class="cls-20" d="M363.5,67.82l.7.86C364,68.39,363.74,68.1,363.5,67.82Z"></path><path d="M363.46,67.86l-.07-.08-.06-.07h-.05l.1-.07h0l.13.16Z"></path><path class="cls-3" d="M337.72,99c0-6.13-4.31-13.61-9.65-16.69-2.63-1.52-5-1.69-6.76-.74l-.19.11h0c-1.67,1-2.7,3.14-2.71,6.12,0,6.14,4.3,13.62,9.64,16.7,2.65,1.53,5.06,1.69,6.81.71h.05C336.67,104.18,337.67,102,337.72,99Z"></path><path class="cls-6" d="M337.72,99c0-6.13-4.31-13.61-9.65-16.69-2.63-1.52-5-1.69-6.76-.74l-.19.11h0c-1.67,1-2.7,3.14-2.71,6.12,0,6.14,4.3,13.62,9.64,16.7,2.65,1.53,5.06,1.69,6.81.71h.05C336.67,104.18,337.67,102,337.72,99Z"></path><path class="cls-6" d="M334.3,97a13.74,13.74,0,0,0-6.24-10.8c-1.7-1-3.24-1.09-4.38-.47l-.12.07h0c-1.08.67-1.75,2-1.76,4A13.74,13.74,0,0,0,328,100.61c1.72,1,3.27,1.09,4.41.46h0C333.6,100.38,334.3,99,334.3,97Z"></path><path class="cls-3" d="M332.89,86.54h0c2.9,3.6,4.85,8.32,4.84,12.44,0,3.06-1.09,5.2-2.83,6.21l6.55-3.86c-1.81-6-5.25-10.78-8.55-14.79Z"></path><path class="cls-21" d="M332.89,86.54h0c2.9,3.6,4.85,8.32,4.84,12.44,0,3.06-1.09,5.2-2.83,6.21l6.55-3.86c-1.81-6-5.25-10.78-8.55-14.79Z"></path><polygon class="cls-13" points="387.47 147.38 384.16 149.37 384.16 149.37 387.47 147.38"></polygon><path class="cls-3" d="M405.17,136.78c-2.52-4.66-7.38-7.72-12.28-9.74s-10.11-3.32-14.79-5.82-8.94-6.5-10-11.7c-.82-4.06.45-8.22.81-12.35,1-11.9-4.22-19.88-9.43-26.2a18.47,18.47,0,0,0-5-4.36,8.42,8.42,0,0,0-5.55-1.31L327.67,77.84a8.16,8.16,0,0,1,5.81,1.24,18.68,18.68,0,0,1,5,4.37c5.21,6.32,10.48,14.29,9.43,26.2-.36,4.13-1.63,8.28-.81,12.35,1.06,5.19,5.32,9.21,10,11.7s9.89,3.8,14.79,5.82,9.82,5.18,12.34,9.85l3.31-2Z"></path><path class="cls-22" d="M405.17,136.78c-2.52-4.66-7.38-7.72-12.28-9.74s-10.11-3.32-14.79-5.82-8.94-6.5-10-11.7c-.82-4.06.45-8.22.81-12.35,1-11.9-4.22-19.88-9.43-26.2a18.47,18.47,0,0,0-5-4.36,8.42,8.42,0,0,0-5.55-1.31L327.67,77.84a8.16,8.16,0,0,1,5.81,1.24,18.68,18.68,0,0,1,5,4.37c5.21,6.32,10.48,14.29,9.43,26.2-.36,4.13-1.63,8.28-.81,12.35,1.06,5.19,5.32,9.21,10,11.7s9.89,3.8,14.79,5.82,9.82,5.18,12.34,9.85l3.31-2Z"></path><path class="cls-3" d="M371.82,139.52c-4.9-2-10.11-3.33-14.79-5.82s-8.94-6.51-10-11.7c-.82-4.07.45-8.22.81-12.35,1.05-11.91-4.22-19.88-9.43-26.2a18.68,18.68,0,0,0-5-4.37,8.16,8.16,0,0,0-5.81-1.24L323.85,80l1.75-1,.12.88a4.69,4.69,0,0,0-1.56.51l-.14.08-.29-.38-2.45,1.44c1.75-1,4.13-.78,6.76.74a18,18,0,0,1,4.81,4.25h0c3.3,4,6.74,8.8,8.55,14.79A30.63,30.63,0,0,1,342.67,113c-.36,4.13-1.63,8.28-.81,12.34,1.05,5.2,5.31,9.21,10,11.71s9.88,3.8,14.79,5.82,9.72,5,12.24,9.65l5.32-3.19C381.67,144.7,376.72,141.54,371.82,139.52ZM330.49,81a10,10,0,0,0-1.84-.79l.31-1a12.22,12.22,0,0,1,2,.87Zm15.6,26.25h-1c0-.68-.07-1.38-.13-2.07l1-.1C346,105.82,346.07,106.54,346.09,107.25Zm-1.28,5.22c.05-.41.1-.82.13-1.22s.05-.57.07-.85l1,.06a3.78,3.78,0,0,1-.07.88c-.07.3-.08.84-.13,1.26Zm.57,3.27c-.11.7-.21,1.39-.29,2.08l-1-.13q.14-1,.3-2.1ZM345,99.85c.19.68.36,1.38.5,2.08l-1,.21c-.14-.68-.3-1.36-.49-2ZM334.5,84.14a19.73,19.73,0,0,0-1.49-1.4l.66-.8c.54.46,1.07,1,1.58,1.49Zm3.3,4c-.42-.57-.85-1.12-1.28-1.66l.81-.65c.44.55.87,1.11,1.3,1.69Zm2.9,4.33c-.36-.6-.72-1.19-1.1-1.77l.86-.56c.39.59.77,1.19,1.13,1.81Zm1.45,2.76.94-.44c.3.64.58,1.3.85,2l-1,.38a19.53,19.53,0,0,0-.79-1.9Zm1.71,25.65h1a14.84,14.84,0,0,0,.16,2l-1,.15a14.87,14.87,0,0,1-.16-2.11Zm2.05,7.28a13.78,13.78,0,0,1-1-2l.95-.4a14.64,14.64,0,0,0,.92,1.81Zm3.48,4.13c-.54-.49-1.06-1-1.53-1.52l.77-.69a17.92,17.92,0,0,0,1.45,1.44Zm4.39,3.12c-.63-.35-1.25-.73-1.83-1.13l.58-.85c.56.38,1.15.74,1.76,1.09Zm4.83,2.28-2-.83.42-1c.64.29,1.28.56,1.92.82Zm5,1.82-2-.7.35-1,2,.71Zm4.94,1.8c-.65-.26-1.3-.5-2-.74l.36-1,2,.75Zm4.72,2.2-1.85-1,.45-.93c.64.3,1.28.63,1.9,1Zm4.24,2.94a15.35,15.35,0,0,0-1.61-1.28l.6-.84c.59.43,1.17.88,1.69,1.34Zm3.33,3.86a16.09,16.09,0,0,0-1.18-1.66l.8-.66a16.85,16.85,0,0,1,1.26,1.78Z"></path><path class="cls-3" d="M397.38,124.46c-4.91-2-10.11-3.32-14.79-5.82s-8.95-6.5-10-11.7c-.82-4.06.45-8.22.81-12.35,1-11.28-4.22-19.68-9.2-25.91l-.7-.86-.13-.15a17.18,17.18,0,0,0-4.27-3.61c-2.74-1.59-5.21-1.68-7-.59h0L349,65.32a8.42,8.42,0,0,1,5.55,1.31,18.47,18.47,0,0,1,5,4.36c5.21,6.32,10.48,14.3,9.43,26.2-.36,4.13-1.63,8.29-.81,12.35,1.06,5.2,5.32,9.21,10,11.7s9.89,3.8,14.79,5.82,9.76,5.08,12.28,9.74h0l4.45-2.66C407.1,129.45,402.28,126.48,397.38,124.46Zm-41-59.1a11.09,11.09,0,0,0-1.84-.79l.31-1a12.22,12.22,0,0,1,2,.87Zm4,3.14a19.73,19.73,0,0,0-1.49-1.4l.66-.79c.55.47,1.08,1,1.58,1.48ZM372,91.61h-1c0-.69-.07-1.39-.13-2.07l1-.11a18.47,18.47,0,0,1,.18,2.18Zm-1.28,5.22c.05-.41.1-.81.13-1.22s.05-.57.07-.85l1,.07a3.69,3.69,0,0,1-.07.87c-.07.29-.08.84-.13,1.26Zm.57,3.27c-.11.7-.21,1.39-.29,2.08l-1-.12c.09-.71.19-1.41.3-2.11Zm-.41-15.89c.19.68.36,1.38.5,2.08l-1,.21c-.14-.68-.3-1.36-.49-2Zm-7.17-11.67c-.42-.57-.85-1.12-1.28-1.66l.81-.64c.44.54.87,1.11,1.3,1.68Zm2.9,4.33c-.36-.6-.72-1.19-1.1-1.77l.86-.56c.39.59.77,1.19,1.13,1.81Zm2.28,4.67c-.26-.65-.54-1.29-.83-1.91l.94-.44c.3.64.58,1.3.85,2Zm.88,23.74h1a14.84,14.84,0,0,0,.16,2l-1,.15a14,14,0,0,1-.11-2.15Zm2.05,7.28a13.78,13.78,0,0,1-1-2l.95-.39a13.26,13.26,0,0,0,.92,1.8Zm3.49,4.14a20.2,20.2,0,0,1-1.54-1.53l.77-.69a18.18,18.18,0,0,0,1.46,1.45Zm4.38,3.12c-.63-.36-1.25-.74-1.83-1.14l.58-.85c.56.38,1.15.74,1.75,1.09Zm4.83,2.27-2-.83.42-.94,1.92.81Zm5,1.82-2-.7.35-1,2,.7Zm4.94,1.8c-.65-.26-1.3-.5-2-.74l.36-1,2,.75Zm4.72,2.2c-.61-.33-1.22-.65-1.85-1l.45-.93c.64.31,1.28.63,1.9,1Zm4.24,2.94a15.35,15.35,0,0,0-1.61-1.28l.6-.84c.59.42,1.15.87,1.69,1.34Zm2.15,2.2.8-.65a15.76,15.76,0,0,1,1.26,1.77l-.88.54a15.91,15.91,0,0,0-1.16-1.66Z"></path><path class="cls-7" d="M371.82,139.52c-4.9-2-10.11-3.33-14.79-5.82s-8.94-6.51-10-11.7c-.82-4.07.45-8.22.81-12.35,1.05-11.91-4.22-19.88-9.43-26.2a18.68,18.68,0,0,0-5-4.37,8.16,8.16,0,0,0-5.81-1.24L323.85,80l1.75-1,.12.88a4.69,4.69,0,0,0-1.56.51l-.14.08-.29-.38-2.45,1.44c1.75-1,4.13-.78,6.76.74a18,18,0,0,1,4.81,4.25h0c3.3,4,6.74,8.8,8.55,14.79A30.63,30.63,0,0,1,342.67,113c-.36,4.13-1.63,8.28-.81,12.34,1.05,5.2,5.31,9.21,10,11.71s9.88,3.8,14.79,5.82,9.72,5,12.24,9.65l5.32-3.19C381.67,144.7,376.72,141.54,371.82,139.52ZM330.49,81a10,10,0,0,0-1.84-.79l.31-1a12.22,12.22,0,0,1,2,.87Zm15.6,26.25h-1c0-.68-.07-1.38-.13-2.07l1-.1C346,105.82,346.07,106.54,346.09,107.25Zm-1.28,5.22c.05-.41.1-.82.13-1.22s.05-.57.07-.85l1,.06a3.78,3.78,0,0,1-.07.88c-.07.3-.08.84-.13,1.26Zm.57,3.27c-.11.7-.21,1.39-.29,2.08l-1-.13q.14-1,.3-2.1ZM345,99.85c.19.68.36,1.38.5,2.08l-1,.21c-.14-.68-.3-1.36-.49-2ZM334.5,84.14a19.73,19.73,0,0,0-1.49-1.4l.66-.8c.54.46,1.07,1,1.58,1.49Zm3.3,4c-.42-.57-.85-1.12-1.28-1.66l.81-.65c.44.55.87,1.11,1.3,1.69Zm2.9,4.33c-.36-.6-.72-1.19-1.1-1.77l.86-.56c.39.59.77,1.19,1.13,1.81Zm1.45,2.76.94-.44c.3.64.58,1.3.85,2l-1,.38a19.53,19.53,0,0,0-.79-1.9Zm1.71,25.65h1a14.84,14.84,0,0,0,.16,2l-1,.15a14.87,14.87,0,0,1-.16-2.11Zm2.05,7.28a13.78,13.78,0,0,1-1-2l.95-.4a14.64,14.64,0,0,0,.92,1.81Zm3.48,4.13c-.54-.49-1.06-1-1.53-1.52l.77-.69a17.92,17.92,0,0,0,1.45,1.44Zm4.39,3.12c-.63-.35-1.25-.73-1.83-1.13l.58-.85c.56.38,1.15.74,1.76,1.09Zm4.83,2.28-2-.83.42-1c.64.29,1.28.56,1.92.82Zm5,1.82-2-.7.35-1,2,.71Zm4.94,1.8c-.65-.26-1.3-.5-2-.74l.36-1,2,.75Zm4.72,2.2-1.85-1,.45-.93c.64.3,1.28.63,1.9,1Zm4.24,2.94a15.35,15.35,0,0,0-1.61-1.28l.6-.84c.59.43,1.17.88,1.69,1.34Zm3.33,3.86a16.09,16.09,0,0,0-1.18-1.66l.8-.66a16.85,16.85,0,0,1,1.26,1.78Z"></path><path class="cls-3" d="M333,82.74a19.73,19.73,0,0,1,1.49,1.4l.75-.71a20.4,20.4,0,0,0-1.58-1.49Z"></path><path class="cls-3" d="M336.52,86.52c.43.54.86,1.09,1.28,1.66l.83-.62c-.43-.58-.86-1.14-1.3-1.69Z"></path><path class="cls-3" d="M343.09,94.83l-.94.44c.29.62.57,1.26.83,1.91l1-.38C343.67,96.13,343.39,95.47,343.09,94.83Z"></path><path class="cls-3" d="M339.6,90.74c.38.58.74,1.17,1.1,1.77l.89-.52c-.36-.62-.74-1.22-1.13-1.81Z"></path><path class="cls-3" d="M328.67,80.21a10,10,0,0,1,1.84.79l.49-.91a12.22,12.22,0,0,0-2-.87Z"></path><path class="cls-3" d="M324.19,80.41a4.69,4.69,0,0,1,1.56-.51l-.08-.9-1.75,1-.12.07h0l.29.38Z"></path><path class="cls-3" d="M369,79.19l-.94.44c.29.62.57,1.26.83,1.91l1-.38C369.6,80.49,369.32,79.83,369,79.19Z"></path><path class="cls-3" d="M365.53,75.1c.38.58.74,1.17,1.1,1.77l.89-.52c-.36-.62-.74-1.22-1.13-1.81Z"></path><path class="cls-3" d="M362.45,70.88c.43.54.86,1.09,1.28,1.66l.83-.62c-.43-.57-.86-1.14-1.3-1.68Z"></path><path class="cls-3" d="M354.58,64.57a11.09,11.09,0,0,1,1.84.79l.49-.91a12.22,12.22,0,0,0-2-.87Z"></path><path class="cls-3" d="M358.94,67.1a19.73,19.73,0,0,1,1.49,1.4l.75-.71c-.5-.52-1-1-1.58-1.48Z"></path><g class="cls-19"><path d="M333,82.74a19.73,19.73,0,0,1,1.49,1.4l.75-.71a20.4,20.4,0,0,0-1.58-1.49Z"></path><path d="M336.52,86.52c.43.54.86,1.09,1.28,1.66l.83-.62c-.43-.58-.86-1.14-1.3-1.69Z"></path><path d="M343.09,94.83l-.94.44c.29.62.57,1.26.83,1.91l1-.38C343.67,96.13,343.39,95.47,343.09,94.83Z"></path><path d="M339.6,90.74c.38.58.74,1.17,1.1,1.77l.89-.52c-.36-.62-.74-1.22-1.13-1.81Z"></path><path d="M328.67,80.21a10,10,0,0,1,1.84.79l.49-.91a12.22,12.22,0,0,0-2-.87Z"></path><path d="M324.19,80.41a4.69,4.69,0,0,1,1.56-.51l-.08-.9-1.75,1-.12.07h0l.29.38Z"></path><path d="M369,79.19l-.94.44c.29.62.57,1.26.83,1.91l1-.38C369.6,80.49,369.32,79.83,369,79.19Z"></path><path d="M365.53,75.1c.38.58.74,1.17,1.1,1.77l.89-.52c-.36-.62-.74-1.22-1.13-1.81Z"></path><path d="M362.45,70.88c.43.54.86,1.09,1.28,1.66l.83-.62c-.43-.57-.86-1.14-1.3-1.68Z"></path><path d="M354.58,64.57a11.09,11.09,0,0,1,1.84.79l.49-.91a12.22,12.22,0,0,0-2-.87Z"></path><path d="M358.94,67.1a19.73,19.73,0,0,1,1.49,1.4l.75-.71c-.5-.52-1-1-1.58-1.48Z"></path></g><path class="cls-7" d="M397.38,124.46c-4.91-2-10.11-3.32-14.79-5.82s-8.95-6.5-10-11.7c-.82-4.06.45-8.22.81-12.35,1-11.28-4.22-19.68-9.2-25.91l-.7-.86-.13-.15a17.18,17.18,0,0,0-4.27-3.61c-2.74-1.59-5.21-1.68-7-.59h0L349,65.32a8.42,8.42,0,0,1,5.55,1.31,18.47,18.47,0,0,1,5,4.36c5.21,6.32,10.48,14.3,9.43,26.2-.36,4.13-1.63,8.29-.81,12.35,1.06,5.2,5.32,9.21,10,11.7s9.89,3.8,14.79,5.82,9.76,5.08,12.28,9.74h0l4.45-2.66C407.1,129.45,402.28,126.48,397.38,124.46Zm-41-59.1a11.09,11.09,0,0,0-1.84-.79l.31-1a12.22,12.22,0,0,1,2,.87Zm4,3.14a19.73,19.73,0,0,0-1.49-1.4l.66-.79c.55.47,1.08,1,1.58,1.48ZM372,91.61h-1c0-.69-.07-1.39-.13-2.07l1-.11a18.47,18.47,0,0,1,.18,2.18Zm-1.28,5.22c.05-.41.1-.81.13-1.22s.05-.57.07-.85l1,.07a3.69,3.69,0,0,1-.07.87c-.07.29-.08.84-.13,1.26Zm.57,3.27c-.11.7-.21,1.39-.29,2.08l-1-.12c.09-.71.19-1.41.3-2.11Zm-.41-15.89c.19.68.36,1.38.5,2.08l-1,.21c-.14-.68-.3-1.36-.49-2Zm-7.17-11.67c-.42-.57-.85-1.12-1.28-1.66l.81-.64c.44.54.87,1.11,1.3,1.68Zm2.9,4.33c-.36-.6-.72-1.19-1.1-1.77l.86-.56c.39.59.77,1.19,1.13,1.81Zm2.28,4.67c-.26-.65-.54-1.29-.83-1.91l.94-.44c.3.64.58,1.3.85,2Zm.88,23.74h1a14.84,14.84,0,0,0,.16,2l-1,.15a14,14,0,0,1-.11-2.15Zm2.05,7.28a13.78,13.78,0,0,1-1-2l.95-.39a13.26,13.26,0,0,0,.92,1.8Zm3.49,4.14a20.2,20.2,0,0,1-1.54-1.53l.77-.69a18.18,18.18,0,0,0,1.46,1.45Zm4.38,3.12c-.63-.36-1.25-.74-1.83-1.14l.58-.85c.56.38,1.15.74,1.75,1.09Zm4.83,2.27-2-.83.42-.94,1.92.81Zm5,1.82-2-.7.35-1,2,.7Zm4.94,1.8c-.65-.26-1.3-.5-2-.74l.36-1,2,.75Zm4.72,2.2c-.61-.33-1.22-.65-1.85-1l.45-.93c.64.31,1.28.63,1.9,1Zm4.24,2.94a15.35,15.35,0,0,0-1.61-1.28l.6-.84c.59.42,1.15.87,1.69,1.34Zm2.15,2.2.8-.65a15.76,15.76,0,0,1,1.26,1.77l-.88.54a15.91,15.91,0,0,0-1.16-1.66Z"></path><path class="cls-3" d="M366.38,100.62c.19-1.26.37-2.44.48-3.63a28.92,28.92,0,0,0-1.52-12.44L347.78,94.68a32.78,32.78,0,0,1,2.12,15.15c-.11,1.32-.32,2.63-.51,3.89-.15,1-.3,2-.41,2.89l16.79-9.69A37,37,0,0,1,366.38,100.62Z"></path><path class="cls-3" d="M357.88,72.28a16.73,16.73,0,0,0-4.41-3.89A7.4,7.4,0,0,0,350,67.28h-.31l-16.14,9.48,1,.51A20.65,20.65,0,0,1,340,82.11a50.48,50.48,0,0,1,6.83,10.34l17.6-10.16A45.27,45.27,0,0,0,357.88,72.28Z"></path><path class="cls-3" d="M377.13,123.05c-3.52-1.87-9.62-6.06-11-13.12a.77.77,0,0,0-.07-.39l-17.17,9.92a11.66,11.66,0,0,0,.22,2.13c.79,3.94,4.05,7.69,8.94,10.29a41.86,41.86,0,0,0,5.27,2.31l16.85-9.73C379.11,124,378.11,123.57,377.13,123.05Z"></path><path class="cls-3" d="M392.1,129c-1.78-.73-3.67-1.39-5.49-2-1.21-.42-2.44-.86-3.67-1.32l-16.73,9.65.7.25c1.87.65,3.81,1.33,5.7,2.11,3.92,1.62,9,4.43,12.23,8.95l17.45-10.46C400.17,133.27,396.76,130.87,392.1,129Z"></path><path class="cls-15" d="M397.38,124.46c-4.91-2-10.11-3.32-14.79-5.82s-8.95-6.5-10-11.7c-.82-4.06.45-8.22.81-12.35,1-11.28-4.22-19.68-9.2-25.91l-.7-.86-.13-.15a17.18,17.18,0,0,0-4.27-3.61c-2.74-1.59-5.21-1.68-7-.59h0L349,65.32,327.67,77.84,323.92,80l-.12.07-2.45,1.44c1.75-1,4.13-.78,6.76.74a18,18,0,0,1,4.81,4.25h0c3.3,4,6.74,8.8,8.55,14.79a30.72,30.72,0,0,1,1.2,11.67c-.36,4.13-1.63,8.28-.81,12.34,1.05,5.2,5.31,9.21,10,11.71s9.88,3.8,14.79,5.82,9.72,5,12.24,9.65l5.32-3.19,3.31-2,17.7-10.6h0l4.45-2.66C407.1,129.45,402.28,126.48,397.38,124.46Zm5,4.27c.59.42,1.15.87,1.69,1.34l-.68.78a15.35,15.35,0,0,0-1.61-1.28Zm-58-13.14,1,.15c-.11.7-.21,1.39-.29,2.08l-1-.13q.11-1.05.27-2.1ZM344,100.13l1-.28c.19.68.36,1.38.5,2.08l-1,.21c-.17-.68-.33-1.36-.52-2Zm.84,12.34c.05-.41.1-.82.13-1.22s.05-.57.07-.85l1,.06a3.78,3.78,0,0,1-.07.88c-.07.3-.08.84-.13,1.26Zm.25-5.19c0-.68-.07-1.38-.13-2.07l1-.1c.07.71.12,1.43.14,2.14Zm26.25-7.18c-.11.7-.21,1.39-.29,2.08l-1-.12c.09-.71.19-1.41.3-2.11Zm-.57-3.27c.05-.41.1-.81.13-1.22s.05-.57.07-.85l1,.07a3.69,3.69,0,0,1-.07.87c-.07.29-.08.84-.13,1.26Zm.08,8.44a14.84,14.84,0,0,0,.16,2l-1,.15a14.32,14.32,0,0,1-.17-2.17Zm27,20.76c.64.31,1.28.63,1.9,1l-.5.9c-.61-.33-1.22-.65-1.85-1Zm-4.92-2,2,.75-.38,1c-.65-.26-1.3-.5-2-.74Zm-5-1.76,2,.7-.35,1-2-.7Zm-4.87-1.92,1.92.81-.38,1-2-.83Zm-4.54-2.49c.56.38,1.15.74,1.75,1.09l-.5.9c-.63-.36-1.25-.74-1.83-1.14Zm-3.9-3.35a18.18,18.18,0,0,0,1.46,1.45l-.69.77a20.2,20.2,0,0,1-1.54-1.53ZM372.72,112l-.88.54a13.78,13.78,0,0,1-1-2l1-.39A14.57,14.57,0,0,0,372.72,112ZM372,91.59h-1c0-.69-.07-1.39-.13-2.07l1-.11c.06.77.11,1.49.13,2.2Zm-1.12-7.4c.19.68.36,1.38.5,2.08l-1,.21c-.14-.68-.3-1.36-.49-2Zm-27,36.71h1a14.84,14.84,0,0,0,.16,2l-1,.15a15.06,15.06,0,0,1-.2-2.13Zm2.05,7.28a13.78,13.78,0,0,1-1-2l.95-.4a14.64,14.64,0,0,0,.92,1.81Zm3.48,4.13c-.54-.49-1.06-1-1.53-1.52l.77-.69a17.92,17.92,0,0,0,1.45,1.44Zm4.39,3.12c-.63-.35-1.25-.73-1.83-1.13l.58-.85c.56.38,1.15.74,1.76,1.09Zm4.83,2.28-2-.83.42-1c.64.29,1.28.56,1.92.82Zm5,1.82-2-.7.35-1,2,.71Zm4.94,1.8c-.65-.26-1.3-.5-2-.74l.36-1,2,.75Zm4.72,2.2-1.85-1,.45-.93c.64.3,1.28.63,1.9,1Zm4.24,2.94a15.35,15.35,0,0,0-1.61-1.28l.6-.84c.59.43,1.17.88,1.69,1.34Zm3.33,3.86a16.09,16.09,0,0,0-1.18-1.66l.8-.66a16.85,16.85,0,0,1,1.26,1.78ZM405.63,133l.8-.65a15.76,15.76,0,0,1,1.26,1.77l-.88.54a16.5,16.5,0,0,0-1.25-1.64Z"></path><path class="cls-23" d="M332.89,86.54h0a18,18,0,0,0-4.81-4.25c-2.63-1.52-5-1.69-6.76-.74l-.19.11h0c-1.67,1-2.7,3.14-2.71,6.12,0,6.14,4.3,13.62,9.64,16.7,2.65,1.53,5.06,1.69,6.81.71h.05l6.55-3.86C339.67,95.34,336.19,90.55,332.89,86.54ZM334,88l-.07-.09Zm3.69,9.58a1.18,1.18,0,0,0-.05-.41,3.28,3.28,0,0,1,.08.41ZM337.41,96a.7.7,0,0,0-.07-.37c0,.12.05.25.07.33Zm-1-3.36a.82.82,0,0,0-.11-.28,1.75,1.75,0,0,1,.13.28Zm-.7-1.6a1.11,1.11,0,0,0-.07-.16.65.65,0,0,1,.09.16Z"></path><polygon class="cls-3" points="343.91 180.51 332.92 189.17 332.89 197.62 369.44 218.72 369.47 210.27 362.5 196.43 356.25 201.29 358.46 208.16 355.25 202.06 343.91 180.51"></polygon><path class="cls-3" d="M355.91,184.77c-1.72-1-3.12-.19-3.12,1.78a6.81,6.81,0,0,0,3.1,5.38c1.72,1,3.12.2,3.13-1.78A6.9,6.9,0,0,0,355.91,184.77Z"></path></g><g id="freepik--light-bulb--inject-2"><g id="freepik--freepik--light-bulb--inject-77--inject-2"><g id="freepik--freepik--Idea--inject-77--inject-2"><g id="freepik--freepik--light--inject-77--inject-2"><path class="cls-20" d="M124.34,97.22a3.53,3.53,0,1,1-3.59-3.47,3.53,3.53,0,0,1,3.59,3.47Z"></path><path class="cls-17" d="M116.54,97.59c-2.36-1.31-2.4-3.5-.08-4.9a9.42,9.42,0,0,1,8.48-.12c2.36,1.32,2.4,3.51.08,4.89A9.38,9.38,0,0,1,116.54,97.59Z"></path><path class="cls-20" d="M116.39,96.32c-2.44-1.36-2.48-3.61-.09-5a9.73,9.73,0,0,1,8.75-.14c2.43,1.37,2.47,3.62.07,5A9.6,9.6,0,0,1,116.39,96.32Z"></path><path class="cls-17" d="M116.24,95c-2.5-1.4-2.54-3.72-.06-5.14a10,10,0,0,1,9-.14c2.51,1.39,2.56,3.73.09,5.2A10,10,0,0,1,116.24,95Z"></path><path class="cls-20" d="M116.07,93.65c-2.58-1.43-2.61-3.83-.08-5.35a10.25,10.25,0,0,1,9.28-.16c2.59,1.45,2.63,3.84.08,5.37A10.28,10.28,0,0,1,116.07,93.65Z"></path><path class="cls-17" d="M115.93,92.25c-2.67-1.53-2.69-3.92-.09-5.48a10.46,10.46,0,0,1,9.48-.14c2.64,1.46,2.68,3.91.08,5.46A10.47,10.47,0,0,1,115.93,92.25Z"></path><path class="cls-3" d="M120,51a16.8,16.8,0,0,0-16.58,17v.08c.21,13.36,11.25,15.42,11.36,20.79a2.91,2.91,0,0,0,1.74,2.35,9.07,9.07,0,0,0,8.21-.12,2.87,2.87,0,0,0,1.64-2.39h0c-.09-5.39,10.9-7.78,10.69-21.16a16.79,16.79,0,0,0-17-16.55Z"></path><g class="cls-24"><path class="cls-5" d="M120,51a16.8,16.8,0,0,0-16.58,17v.08c.21,13.36,11.25,15.42,11.36,20.79a2.91,2.91,0,0,0,1.74,2.35,9.07,9.07,0,0,0,8.21-.12,2.87,2.87,0,0,0,1.64-2.39h0c-.09-5.39,10.9-7.78,10.69-21.16a16.79,16.79,0,0,0-17-16.55Z"></path></g><path class="cls-3" d="M117.58,90.49c-1.68-1-1.76-2.55-.11-3.55a6.86,6.86,0,0,1,6.18-.09c1.68,1,1.75,2.55.06,3.56A6.79,6.79,0,0,1,117.58,90.49Z"></path><path class="cls-5" d="M122.87,88.2a.58.58,0,0,1-.58-.55,41.54,41.54,0,0,1,1-9.62,19.74,19.74,0,0,1,.8-2.69,7.42,7.42,0,0,1-1.48-.7,9.86,9.86,0,0,1-2.28-1.89,10,10,0,0,1-2.2,1.91,7.38,7.38,0,0,1-1.46.73,20.9,20.9,0,0,1,.89,2.67,40,40,0,0,1,1.33,9.61.56.56,0,0,1-.57.57.57.57,0,0,1-.57-.57h0a40.57,40.57,0,0,0-1.3-9.3,19.18,19.18,0,0,0-.89-2.65,3.52,3.52,0,0,1-3.2-.89,1.83,1.83,0,0,1-.29-2.35,1.55,1.55,0,0,1,1.55-.68,4.37,4.37,0,0,1,2.57,2.58,6.44,6.44,0,0,0,1.31-.66,8.8,8.8,0,0,0,2.12-1.87,4.14,4.14,0,0,1-.89-3.2,1.52,1.52,0,0,1,1.52-1.15,1.48,1.48,0,0,1,1.54,1.1,4.15,4.15,0,0,1-.78,3.23,8.89,8.89,0,0,0,2.16,1.8,6,6,0,0,0,1.34.61A4.43,4.43,0,0,1,127,71.59a1.55,1.55,0,0,1,1.56.68,1.81,1.81,0,0,1-.21,2.35,3.55,3.55,0,0,1-3.17,1,19.7,19.7,0,0,0-.82,2.68,40.8,40.8,0,0,0-1,9.34.57.57,0,0,1-.55.6Zm-9.49-15.27a.38.38,0,0,0-.31.21.67.67,0,0,0,.16.91,2.24,2.24,0,0,0,1.83.56,3.24,3.24,0,0,0-1.59-1.69Zm12.37,1.56a2.31,2.31,0,0,0,1.83-.64c.09-.11.42-.53.14-.91a.4.4,0,0,0-.41-.2c-.39.08-1,.62-1.56,1.75Zm-5.42-5.82a.39.39,0,0,0-.44.32h0a2.73,2.73,0,0,0,.48,1.86,2.79,2.79,0,0,0,.4-1.87.39.39,0,0,0-.44-.32h0Z"></path></g><path class="cls-25" d="M120,44.57a.93.93,0,0,1-.29,0,1.11,1.11,0,0,1-1.08-1.08l-.12-5.73a1.1,1.1,0,0,1,1.06-1.13h0a1.11,1.11,0,0,1,1.06,1.08l.13,5.74A1.11,1.11,0,0,1,120,44.57Z"></path><path class="cls-25" d="M107.88,48.12a1.08,1.08,0,0,1-1.25-.48l-3-4.9a1.11,1.11,0,0,1,.47-1.49,1.09,1.09,0,0,1,1.41.35l3,4.89a1.08,1.08,0,0,1-.35,1.5h0A.68.68,0,0,1,107.88,48.12Z"></path><path class="cls-25" d="M99.13,57.28a1.06,1.06,0,0,1-.85-.09l-5-2.76a1.1,1.1,0,1,1,.7-2.08,1.05,1.05,0,0,1,.3.15l5,2.75a1.1,1.1,0,0,1,.43,1.49A1.06,1.06,0,0,1,99.13,57.28Z"></path><path class="cls-25" d="M96.12,69.58a.63.63,0,0,1-.27.1l-5.73.13a1.08,1.08,0,0,1-1.12-1h0a1.1,1.1,0,0,1,1-1.13h0l5.74-.19a1.1,1.1,0,0,1,.33,2.15Z"></path><path class="cls-25" d="M150.78,68.36a.64.64,0,0,1-.27.11l-5.75.07a1.1,1.1,0,0,1-.21-2.19h.21l5.73-.14a1.08,1.08,0,0,1,.33,2.12Z"></path><path class="cls-25" d="M141.5,56.34a1.08,1.08,0,0,1-1.37-.73,1.1,1.1,0,0,1,.49-1.27l4.9-3a1.09,1.09,0,0,1,1.49.34h0a1.08,1.08,0,0,1-.33,1.49h0l-4.9,3A1,1,0,0,1,141.5,56.34Z"></path><path class="cls-25" d="M132.35,47.58a1.1,1.1,0,0,1-1.37-.75,1.12,1.12,0,0,1,.09-.84l2.78-5a1.11,1.11,0,0,1,1.93,1.06l-2.76,5A1.14,1.14,0,0,1,132.35,47.58Z"></path></g></g></g><path class="cls-25" d="M140.11,341.41a9.66,9.66,0,0,0-4.39-7.59,3.81,3.81,0,0,0-.57-.29v-3.28L121.25,324a9.51,9.51,0,0,0,2.17-5.61,3.11,3.11,0,0,0-1.24-2.78h0l-2.79-1.77h0v-2.65l-.69-.28L104.21,314v-3a5,5,0,0,0,.66-.31,3.29,3.29,0,0,0,1.94-2.74V285H93.46v23a3.35,3.35,0,0,0,2,2.74c.19.11.41.19.62.29v3.52l-19.9-1.05-1.51.5v.71a2.57,2.57,0,0,0-2.08.2h0l-2.79,1.77h0a3.11,3.11,0,0,0-1.24,2.78,9.64,9.64,0,0,0,4.39,7.6,3.11,3.11,0,0,0,3.1.32h0l2.76-1.76h0a3,3,0,0,0,1.37-2.85,9.09,9.09,0,0,0-1.31-4.36l12.25,3.09L67.89,335.3v4.35a9.77,9.77,0,0,0-3.57,7,3,3,0,0,0,1.35,2.85h0l2.75,1.76h0a3.09,3.09,0,0,0,3.1-.32,9.66,9.66,0,0,0,4.38-7.6,3.08,3.08,0,0,0-1.23-2.78h0l-1.43-.91,24.95-13.48h0a6.29,6.29,0,0,0,1.93.31h0l3,21.59a2.48,2.48,0,0,0-1.46.32h0l-2.79,1.76h0a3.13,3.13,0,0,0-1.24,2.79,9.65,9.65,0,0,0,4.39,7.59,3.11,3.11,0,0,0,3.1.33h.06l2.75-1.75h0a3,3,0,0,0,1.38-2.86,9.83,9.83,0,0,0-3.63-7.07v-2.81l-2.38-20.72a1.87,1.87,0,0,0,1-1.53l26.35,10.71-.81.51h0a3.11,3.11,0,0,0-1.24,2.78,9.67,9.67,0,0,0,4.39,7.6,3.11,3.11,0,0,0,3.1.33h.06l2.75-1.76h0A3,3,0,0,0,140.11,341.41ZM134,331l-13.61-6.06h0l10.07,4.49Zm-22-11.17-1.4-.63,2-1.09a9.57,9.57,0,0,0-.58,1.71Zm-.21,1.28h0l-7.59-3.37Z"></path><path class="cls-20" d="M71.92,320.45l-2.2-3.77,2.86-1.82h0a3.09,3.09,0,0,1,3.18.26,9.71,9.71,0,0,1,4.39,7.6,3,3,0,0,1-1.37,2.85h0L76,327.36l-2.33-4A10.8,10.8,0,0,1,71.92,320.45Z"></path><path class="cls-17" d="M72.9,317c-2.43-1.4-4.41-.28-4.42,2.51a9.64,9.64,0,0,0,4.39,7.6c2.43,1.4,4.41.28,4.41-2.52A9.65,9.65,0,0,0,72.9,317Z"></path><path class="cls-20" d="M120,319.38l2.2-3.78-2.86-1.82h0a3.07,3.07,0,0,0-3.18.27,9.66,9.66,0,0,0-4.39,7.59,3,3,0,0,0,1.37,2.86h0l2.81,1.8,2.33-4A10.85,10.85,0,0,0,120,319.38Z"></path><path class="cls-17" d="M119,315.87c2.43-1.4,4.41-.28,4.42,2.51A9.64,9.64,0,0,1,119,326c-2.43,1.4-4.41.28-4.41-2.51A9.67,9.67,0,0,1,119,315.87Z"></path><path class="cls-26" d="M104.21,310H96.05v14.07h0a2.06,2.06,0,0,0,1.21,1.67,6.38,6.38,0,0,0,5.77,0,2,2,0,0,0,1.18-1.67h0Z"></path><polygon class="cls-25" points="74.66 313.96 74.66 317.32 96.05 322.71 96.05 315.61 74.66 313.96"></polygon><polygon class="cls-1" points="74.66 313.96 76.15 313.46 96.05 314.51 96.05 315.61 74.66 313.96"></polygon><path class="cls-20" d="M72.51,344.37l2.21-3.78-2.86-1.82h0a3,3,0,0,0-3.17.27,9.66,9.66,0,0,0-4.39,7.59,3,3,0,0,0,1.37,2.87h0l2.81,1.79,2.32-4A10.33,10.33,0,0,0,72.51,344.37Z"></path><path class="cls-17" d="M71.54,340.86c2.43-1.4,4.41-.28,4.41,2.51A9.66,9.66,0,0,1,71.57,351c-2.43,1.4-4.41.28-4.42-2.52A9.66,9.66,0,0,1,71.54,340.86Z"></path><path class="cls-20" d="M101,354l-2.2-3.78,2.86-1.81h0a3.09,3.09,0,0,1,3.18.27,9.71,9.71,0,0,1,4.39,7.59,3,3,0,0,1-1.38,2.86h0L105,360.92l-2.33-4A10.57,10.57,0,0,1,101,354Z"></path><path class="cls-17" d="M102,350.45c-2.43-1.41-4.41-.28-4.42,2.51a9.65,9.65,0,0,0,4.39,7.59c2.43,1.41,4.41.28,4.41-2.51A9.65,9.65,0,0,0,102,350.45Z"></path><path class="cls-20" d="M131.88,339.14l-2.2-3.78,2.86-1.82h0a3,3,0,0,1,3.18.27,9.66,9.66,0,0,1,4.39,7.59,3,3,0,0,1-1.37,2.86h0l-2.81,1.8-2.32-4A10.63,10.63,0,0,1,131.88,339.14Z"></path><path class="cls-17" d="M132.86,335.63c-2.43-1.4-4.41-.28-4.42,2.51a9.67,9.67,0,0,0,4.39,7.6c2.43,1.4,4.41.28,4.42-2.52A9.71,9.71,0,0,0,132.86,335.63Z"></path><polygon class="cls-25" points="69.52 336.19 69.52 341.62 98.16 326.15 98.16 318.66 69.52 336.19"></polygon><polygon class="cls-1" points="67.86 335.26 96.52 318.24 98.16 318.66 69.52 336.19 67.86 335.26"></polygon><polygon class="cls-27" points="67.86 340.69 69.52 341.62 69.52 336.19 67.86 335.26 67.86 340.69"></polygon><polygon class="cls-25" points="100.09 318.66 103.58 346.35 103.58 351.3 100.09 326.45 100.09 318.66"></polygon><rect class="cls-27" x="103.58" y="346.34" width="2.02" height="4.95"></rect><polygon class="cls-1" points="105.6 346.35 102.42 318.66 100.09 318.66 103.58 346.35 105.6 346.35"></polygon><polygon class="cls-25" points="133.99 330.99 133.99 336.19 104.21 324.09 104.21 317.73 133.99 330.99"></polygon><polygon class="cls-27" points="135.15 335.43 133.99 336.19 133.99 330.99 135.15 330.25 135.15 335.43"></polygon><polygon class="cls-1" points="130.45 329.42 133.99 330.99 135.15 330.25 104.21 316.31 104.21 317.73 130.45 329.42"></polygon><polygon class="cls-25" points="119.29 311.13 119.29 314.54 110.61 319.19 104.21 316.31 104.21 314.91 119.29 311.13"></polygon><polygon class="cls-1" points="119.29 311.13 118.6 310.86 104.21 313.96 104.21 314.91 119.29 311.13"></polygon><path class="cls-25" d="M106.81,285H93.46v23h0a3.35,3.35,0,0,0,2,2.74,10.4,10.4,0,0,0,9.44,0,3.29,3.29,0,0,0,1.94-2.74h0Z"></path><path class="cls-20" d="M159.42,248a7.57,7.57,0,0,0-2.54-2.46l-5-2.56c0-17.8,2.63-16.06,7.54-23s-2.62-11.33-8.28-8.23h0s-31.66,9.31-40,1.09c-10.41-10.22-6-36-4.81-46.09s0-17.07-2.79-20-6.83-7.3-19.94-1.87c0,0-35.33,15.31-52.63,23.85a23.35,23.35,0,0,0-10.89,5.54,7.18,7.18,0,0,0-2,2.63,3.14,3.14,0,0,0,.39,3.15,3,3,0,0,0,2.08.93l21.83,80.65a19.31,19.31,0,0,0,9.91,12.18L90.38,293a12.75,12.75,0,0,0,11.73-.11L156.53,264C162,260.9,162.47,252.59,159.42,248Z"></path><path class="cls-20" d="M159.42,248a8.55,8.55,0,0,1-2.89,2.72l-54.42,28.91a12.69,12.69,0,0,1-11.73.12L52.25,260.39a19.31,19.31,0,0,1-9.91-12.18l-18.4-68-.92.28a7.05,7.05,0,0,1-2.41.36h-.1L42.34,261.5a19.31,19.31,0,0,0,9.91,12.18L90.38,293a12.75,12.75,0,0,0,11.73-.11L156.53,264C162,260.9,162.47,252.59,159.42,248Z"></path><path class="cls-17" d="M156.88,245.49l-39.44-20.23L65.51,252c1.69.41,3.4.75,5.11,1.09,4.46.9,9,1.89,12.89,4.27s7,6.47,7,11l-1.39,10.71h0l1.21.62a12.69,12.69,0,0,0,11.73-.12l54.42-28.91a8.55,8.55,0,0,0,2.89-2.72A7.48,7.48,0,0,0,156.88,245.49Z"></path><path class="cls-6" d="M156.88,245.49l-39.44-20.23L65.51,252c1.69.41,3.4.75,5.11,1.09,4.46.9,9,1.89,12.89,4.27s7,6.47,7,11l-1.39,10.71h0l1.21.62a12.69,12.69,0,0,0,11.73-.12l54.42-28.91a8.55,8.55,0,0,0,2.89-2.72A7.48,7.48,0,0,0,156.88,245.49Z"></path><path class="cls-17" d="M151.14,211.66s-31.66,9.31-40,1.09c-10.41-10.22-6-36-4.81-46.09s0-17.07-2.79-20-6.83-7.3-19.94-1.87c13.27,6.83,15,39.28,10.79,52.31,10.39,10.69,9.68,27.27,9.88,35,0,0,27.05,6.6,41.17,14.36Z"></path><path class="cls-28" d="M151.14,211.66s-31.66,9.31-40,1.09c-10.41-10.22-6-36-4.81-46.09s0-17.07-2.79-20-6.83-7.3-19.94-1.87c13.27,6.83,15,39.28,10.79,52.31,10.39,10.69,9.68,27.27,9.88,35,0,0,27.05,6.6,41.17,14.36Z"></path><path class="cls-17" d="M145.4,246.42l6.48-3.49c0-17.8,2.63-16.06,7.54-23s-2.62-11.33-8.28-8.23S143.19,224.11,145.4,246.42Z"></path><path class="cls-22" d="M145.4,246.42l6.48-3.49c0-17.8,2.63-16.06,7.54-23s-2.62-11.33-8.28-8.23S143.19,224.11,145.4,246.42Z"></path><path class="cls-17" d="M83.56,144.78s-35.46,15.37-52.72,23.9L32.1,175,88.67,149.3A15.2,15.2,0,0,0,83.56,144.78Z"></path><path class="cls-28" d="M83.56,144.78s-35.46,15.37-52.72,23.9L32.1,175,88.67,149.3A15.2,15.2,0,0,0,83.56,144.78Z"></path><path class="cls-17" d="M94.35,197.09c3.57-11.12,2.84-36.39-5.7-47.79L32.1,175,45,239.79,65.51,252l38.72-19.92C104,224.36,104.74,207.78,94.35,197.09Z"></path><path class="cls-17" d="M59.34,210.08c1-.56,1.74-.11,1.75,1a3.82,3.82,0,0,1-1.74,3c-1,.55-1.74.11-1.74-1A3.82,3.82,0,0,1,59.34,210.08Z"></path><path class="cls-17" d="M68.09,204.93c1-.55,1.75-.11,1.75,1a3.85,3.85,0,0,1-1.73,3c-1,.55-1.74.11-1.75-1A3.86,3.86,0,0,1,68.09,204.93Z"></path><path class="cls-17" d="M76.85,199.79c1-.55,1.74-.11,1.74,1a3.81,3.81,0,0,1-1.73,3c-1,.56-1.74.11-1.74-1A3.79,3.79,0,0,1,76.85,199.79Z"></path><path class="cls-17" d="M85.6,194.65c1-.56,1.74-.11,1.74,1a3.78,3.78,0,0,1-1.73,3c-1,.55-1.74.11-1.74-1A3.78,3.78,0,0,1,85.6,194.65Z"></path><g class="cls-18"><path class="cls-5" d="M59.34,210.08c1-.56,1.74-.11,1.75,1a3.82,3.82,0,0,1-1.74,3c-1,.55-1.74.11-1.74-1A3.82,3.82,0,0,1,59.34,210.08Z"></path><path class="cls-5" d="M68.09,204.93c1-.55,1.75-.11,1.75,1a3.85,3.85,0,0,1-1.73,3c-1,.55-1.74.11-1.75-1A3.86,3.86,0,0,1,68.09,204.93Z"></path><path class="cls-5" d="M76.85,199.79c1-.55,1.74-.11,1.74,1a3.81,3.81,0,0,1-1.73,3c-1,.56-1.74.11-1.74-1A3.79,3.79,0,0,1,76.85,199.79Z"></path><path class="cls-5" d="M85.6,194.65c1-.56,1.74-.11,1.74,1a3.78,3.78,0,0,1-1.73,3c-1,.55-1.74.11-1.74-1A3.78,3.78,0,0,1,85.6,194.65Z"></path></g><path class="cls-20" d="M83.51,257.34c-3.84-2.34-8.43-3.34-12.84-4.27-1.71-.34-3.42-.68-5.11-1.09a31.52,31.52,0,0,1-7.91-2.88c-6.25-3.46-10.45-9.92-12.46-16.78s-2.06-14.13-1.64-21.26,1.31-14.26,1.09-21.41c-.12-4.15-.75-8.6-3.56-11.66s-7.58-4.14-11.82-3.57a24.16,24.16,0,0,0-4.11,1l-1.88,2.19.72,2.67,18.4,68a19.26,19.26,0,0,0,8.45,11.34c.48.29,1,.58,1.46.84l36.92,18.69,1.39-10.71C90.53,263.81,87.39,259.73,83.51,257.34Z"></path><path class="cls-17" d="M83.56,250c-13.5-3.85-26.77-4.35-31.65-14.05s-5.24-23.08-2.8-46.36a35.69,35.69,0,0,0-.21-9c-1.44-8.71-6.68-12.43-12.71-12.52A23.48,23.48,0,0,0,20,174.14a7.18,7.18,0,0,0-2,2.63,3.14,3.14,0,0,0,.39,3.15,3,3,0,0,0,2.08.93h.1a7.05,7.05,0,0,0,2.41-.36l.92-.28c1.65-.53,3.28-1.14,5-1.56a10.84,10.84,0,0,1,6.08,0,6.46,6.46,0,0,1,3.9,4.35c5.69,18.6-1.52,38.58,4.88,53.95,5.24,14,23.34,19.76,36.11,23.9h0a7.82,7.82,0,0,1-3.19-2.32,5.39,5.39,0,0,1,.5-6.47A7,7,0,0,1,83.56,250Z"></path><path class="cls-28" d="M83.56,250c-13.5-3.85-26.77-4.35-31.65-14.05s-5.24-23.08-2.8-46.36a35.69,35.69,0,0,0-.21-9c-1.44-8.71-6.68-12.43-12.71-12.52A23.48,23.48,0,0,0,20,174.14a7.18,7.18,0,0,0-2,2.63,3.14,3.14,0,0,0,.39,3.15,3,3,0,0,0,2.08.93h.1a7.05,7.05,0,0,0,2.41-.36l.92-.28c1.65-.53,3.28-1.14,5-1.56a10.84,10.84,0,0,1,6.08,0,6.46,6.46,0,0,1,3.9,4.35c5.69,18.6-1.52,38.58,4.88,53.95,5.24,14,23.34,19.76,36.11,23.9h0a7.82,7.82,0,0,1-3.19-2.32,5.39,5.39,0,0,1,.5-6.47A7,7,0,0,1,83.56,250Z"></path><path class="cls-17" d="M92.93,259.6a19.83,19.83,0,0,0-3.45-6.06,10.43,10.43,0,0,0-5.92-3.5,7,7,0,0,0-6.38,2.07,5.39,5.39,0,0,0-.5,6.47,7.82,7.82,0,0,0,3.19,2.32,29.67,29.67,0,0,1,3,1.46,12.6,12.6,0,0,1,5.1,7.21,37.41,37.41,0,0,1,1.18,8.93v.58l6.32-3.5A38.59,38.59,0,0,0,92.93,259.6Z"></path><path class="cls-22" d="M92.93,259.6a19.83,19.83,0,0,0-3.45-6.06,10.43,10.43,0,0,0-5.92-3.5,7,7,0,0,0-6.38,2.07,5.39,5.39,0,0,0-.5,6.47,7.82,7.82,0,0,0,3.19,2.32,29.67,29.67,0,0,1,3,1.46,12.6,12.6,0,0,1,5.1,7.21,37.41,37.41,0,0,1,1.18,8.93v.58l6.32-3.5A38.59,38.59,0,0,0,92.93,259.6Z"></path><path class="cls-20" d="M113,281.19a30.6,30.6,0,0,1-14.74-13.54c-3.21-6-4.8-11.26-3.58-17.94l48.89-19.24c1.51,14.54,14.89,24.08,14.89,24.08Z"></path><path class="cls-29" d="M166.34,338.57c0,3.94-.13,9.7-.13,9.7l-2.64.15a6.38,6.38,0,0,0-5.65,4.2l-.06.16a2.47,2.47,0,0,1-3.07,1.53h0a2.53,2.53,0,0,1-1.51-1.3L152,340.11Z"></path><path class="cls-20" d="M170.07,377.89c6.9,2.94,17.47,3.52,21.85-3.53v1.91c-4.38,7-14.95,6.47-21.85,3.52s-5.4-7.79-11.57-10.35a16.55,16.55,0,0,1-6-3.81,20.05,20.05,0,0,0-.22-2.08,20.63,20.63,0,0,0,6.26,4C164.67,370.12,163.17,374.94,170.07,377.89Z"></path><path class="cls-3" d="M152.24,357.29a10,10,0,0,0,0-4.07,2.18,2.18,0,0,1,.31-1.8l.55-.56.21,2.15a2.53,2.53,0,0,0,1.51,1.3,2.47,2.47,0,0,0,3.07-1.53l.06-.16a6.38,6.38,0,0,1,5.65-4.2l2.68-.15a2,2,0,0,1,1.89,1.18c2.75,6.65,9.68,14,15,17.4,3.92-.09,8.77,3.17,8.77,7.12v.39c-4.38,7.05-14.95,6.47-21.85,3.53s-5.39-7.77-11.57-10.36a20.63,20.63,0,0,1-6.26-4A22.88,22.88,0,0,1,152.24,357.29Z"></path><path class="cls-5" d="M165.6,362.74a.86.86,0,0,1-1.23.13.87.87,0,0,1-.13-1.23,10,10,0,0,1,9-4c.37.46.75.91,1.13,1.35A9.68,9.68,0,0,0,165.6,362.74Z"></path><path class="cls-5" d="M162.88,359.69a.86.86,0,0,1-1.21.12h0a.86.86,0,0,1-.15-1.19h0a10.5,10.5,0,0,1,9.4-4.06l1,1.47C168.58,355.77,165.57,356.41,162.88,359.69Z"></path><path class="cls-5" d="M168.43,365.72a.86.86,0,0,1-1.23.13.87.87,0,0,1-.13-1.23h0a10,10,0,0,1,8.77-4c.45.47.9.92,1.35,1.36A9.66,9.66,0,0,0,168.43,365.72Z"></path><path class="cls-5" d="M183.15,366.85c3.92-.09,8.77,3.17,8.77,7.12v.39c-4.32,6.94-14.63,6.48-21.53,3.65C170.92,368.53,180,366.82,183.15,366.85Z"></path><path class="cls-5" d="M171.34,368.56a.86.86,0,0,1-1.22.14.87.87,0,0,1-.14-1.23h0a10,10,0,0,1,8.79-4c.55.49,1.1.95,1.65,1.39C177.05,364.64,174,365.28,171.34,368.56Z"></path><path class="cls-20" d="M145.81,314.54c.55,8.72,2.78,15,4.48,26.93,0,0,10.44,3.11,17-1.43l.27-18.31Z"></path><path class="cls-29" d="M203.35,325.24c.87,3.82,2.62,8.9,2.62,8.9l-2.64.15a6.41,6.41,0,0,0-5.65,4.2v.16a2.49,2.49,0,0,1-3.08,1.53h0a2.45,2.45,0,0,1-1.5-1.3l-4-10.41Z"></path><path class="cls-20" d="M209.83,363.76c6.9,2.94,17.47,3.52,21.85-3.53v1.91c-4.38,7.05-15,6.47-21.85,3.52s-5.39-7.76-11.57-10.35a16.55,16.55,0,0,1-6-3.81,20.05,20.05,0,0,0-.22-2.08,20.83,20.83,0,0,0,6.26,4C204.44,356,202.93,360.81,209.83,363.76Z"></path><path class="cls-3" d="M192,343.16a10,10,0,0,0,0-4.07,2.21,2.21,0,0,1,.31-1.8l.1-.15.67,1.74a2.48,2.48,0,0,0,4.58-.23v-.16a6.41,6.41,0,0,1,5.65-4.2l2.68-.15a2,2,0,0,1,1.89,1.19c2.75,6.64,9.68,14,15,17.39,3.92-.09,8.77,3.17,8.77,7.12v.39c-4.38,7-15,6.47-21.85,3.53s-5.39-7.77-11.57-10.35a20.83,20.83,0,0,1-6.26-4A22.56,22.56,0,0,1,192,343.16Z"></path><path class="cls-5" d="M205.36,348.61a.86.86,0,0,1-1.23.13.87.87,0,0,1-.13-1.23h0a10,10,0,0,1,9-3.95c.37.45.75.9,1.13,1.34A9.71,9.71,0,0,0,205.36,348.61Z"></path><path class="cls-5" d="M202.67,345.57a.86.86,0,0,1-1.23.13.87.87,0,0,1-.13-1.23h0a10.5,10.5,0,0,1,9.4-4.06l1,1.47C208.35,341.64,205.34,342.28,202.67,345.57Z"></path><path class="cls-5" d="M208.19,351.59a.86.86,0,0,1-1.23.13.87.87,0,0,1-.13-1.23h0a10,10,0,0,1,8.77-4c.45.47.9.92,1.35,1.36A9.66,9.66,0,0,0,208.19,351.59Z"></path><path class="cls-5" d="M222.91,352.72c3.92-.09,8.77,3.17,8.77,7.12v.39c-4.32,6.95-14.63,6.48-21.53,3.65C210.67,354.4,219.78,352.69,222.91,352.72Z"></path><path class="cls-5" d="M211.1,354.43a.86.86,0,0,1-1.22.14.87.87,0,0,1-.14-1.23,10,10,0,0,1,8.8-4c.55.49,1.09,1,1.64,1.39C216.81,350.51,213.8,351.15,211.1,354.43Z"></path><path class="cls-20" d="M179.21,304.75c2,8.5,5.28,14.35,9,25.78,0,0,10.82,1.31,16.46-4.28l-4.86-29.85Z"></path><path class="cls-30" d="M152.58,202.88l12.57,10.21,8.28-13.44L163,187.9C153.84,192,152.58,202.88,152.58,202.88Z"></path><path class="cls-3" d="M134.14,168.16c9.88-1.11,10.79,1.08,17.19,7.12s12.88,12.84,12.88,12.84c-9.88,4.83-11,16.57-11,16.57-5.38-4.17-9.93-7.46-9.93-7.46Z"></path><path class="cls-15" d="M134.14,168.16c9.88-1.11,10.79,1.08,17.19,7.12s12.88,12.84,12.88,12.84c-9.88,4.83-11,16.57-11,16.57-5.38-4.17-9.93-7.46-9.93-7.46Z"></path><path class="cls-3" d="M98.06,176c14-6.59,24.59-7.36,36.08-7.85,17.19,11.07,10.75,20.29,10.46,35.07s-3.51,23.71,6.73,39.08c-22.53,18-51,12.31-57.81,8C89.13,209.38,90.42,179.16,98.06,176Z"></path><path class="cls-31" d="M98.06,176c14-6.59,24.59-7.36,36.08-7.85,17.19,11.07,10.75,20.29,10.46,35.07s-3.51,23.71,6.73,39.08c-22.53,18-51,12.31-57.81,8C89.13,209.38,90.42,179.16,98.06,176Z"></path><path class="cls-32" d="M103.82,146.47c-1.77-5.93-1.39-12.75,2.16-17.82a19.42,19.42,0,0,1,9.41-6.94,29.8,29.8,0,0,1,11.7-1.52,21.78,21.78,0,0,1,9,2.17,14.52,14.52,0,0,1,6,19.65l0,0a24.34,24.34,0,0,1-5.91,6.75,74.59,74.59,0,0,1-14.89,9.93c-1.33.68-2.68,1.32-4.05,1.91-.94.41-2.7,1.55-3.74,1.35s-2.15-2.17-2.78-3c-.91-1.16-1.78-2.35-2.59-3.57A34.55,34.55,0,0,1,103.82,146.47Z"></path><path class="cls-29" d="M140.74,131.28a14.85,14.85,0,0,1-9.86,4.15c-3.46,0-6.82-1.11-10.16-2a7.65,7.65,0,0,1-2.29,4.24,8.78,8.78,0,0,1-4.73,2.07,29.89,29.89,0,0,1,0,9.44,1.77,1.77,0,0,1-1.19,1.45c-1.13.33-1.88-.83-2.42-1.76a7.86,7.86,0,0,0-2.44-2.72,3.85,3.85,0,0,0-3.53-.37,3.69,3.69,0,0,0-1.86,2.27,6.77,6.77,0,0,0-.14,3,8.83,8.83,0,0,0,1.94,4.57,6.17,6.17,0,0,0,4.34,2.25,4.48,4.48,0,0,0,4.18-2.07l.07.31a14.56,14.56,0,0,0,.46,1.46,12.43,12.43,0,0,0,9.13,7.81c2.11.44,4.46.87,6.86,1.23,1.18.18,2.36.35,3.55.49a8.55,8.55,0,0,0,9.44-7C143.67,151,144.2,140.32,140.74,131.28Z"></path><path class="cls-29" d="M113.07,157.53v15.89a17.5,17.5,0,0,0,12.79,7.09,6.21,6.21,0,0,0,4.6-1.18,3.73,3.73,0,0,0,.26-5.27,4.35,4.35,0,0,0-.73-.62,2.06,2.06,0,0,1-.93-1.7v-5.17c-2.4-.36-4.75-.79-6.86-1.23A12.43,12.43,0,0,1,113.07,157.53Z"></path><path class="cls-12" d="M123.67,168.84a33.74,33.74,0,0,0,5.37.95v-3.22c-2.4-.36-4.75-.79-6.86-1.23a12.46,12.46,0,0,1-8.82-7.13,12.71,12.71,0,0,0,3.22,6.66A15.26,15.26,0,0,0,123.67,168.84Z"></path><path class="cls-3" d="M133.83,142.81h-2.06a15,15,0,0,0-14.21-1.45v2.16l.57.31a22.56,22.56,0,0,1,.53,4.25,5.68,5.68,0,0,0,1.57,3.77c1.13,1,2.74,1.07,4.23,1.09a7.69,7.69,0,0,0,3.52-.51,5.61,5.61,0,0,0,2.68-3.21c.5-1.36.42-2.14,1-3.77a1.21,1.21,0,0,1,1.12-.75,1.11,1.11,0,0,1,1.05.75c.59,1.63.52,2.41,1,3.77a5.56,5.56,0,0,0,2.51,3.21,6.75,6.75,0,0,0,3.29.51,5.73,5.73,0,0,0,4-1.09,5.82,5.82,0,0,0,1.46-3.77,24.29,24.29,0,0,1,.5-4.25l.53-.31v-2.16A13.29,13.29,0,0,0,133.83,142.81Zm-3.1,1.11-.08.77a18,18,0,0,1-1,4.09,4.59,4.59,0,0,1-2.13,2.59,5.87,5.87,0,0,1-2.52.41h-.47a5.45,5.45,0,0,1-3.49-.84,4.44,4.44,0,0,1-1.2-3q-.06-.54-.09-1.11c-.07-1,0-3.3.08-4.94a13.66,13.66,0,0,1,3.6-.5,13.85,13.85,0,0,1,7.25,2.11C130.77,143.56,130.73,143.92,130.73,143.92Zm14.37,2.89a5.1,5.1,0,0,1-.08,1.11,4.57,4.57,0,0,1-1.12,3,4.87,4.87,0,0,1-3.27.84h-.44a5.15,5.15,0,0,1-2.36-.41,4.62,4.62,0,0,1-2-2.59,19.1,19.1,0,0,1-1-4.09l-.08-.77s0-.36.08-.44a12.31,12.31,0,0,1,6.78-2.11,12,12,0,0,1,3.37.5A44.05,44.05,0,0,1,145.1,146.81Z"></path><path class="cls-3" d="M117.56,141.36,106,145.52a5,5,0,0,1,2.26,1.06c.13.11,9.3-3.06,9.3-3.06Z"></path><polygon class="cls-33" points="132.78 144.87 138.62 151.94 133.27 153.83 132.78 144.87"></polygon><path class="cls-32" d="M124.54,145.76a1.61,1.61,0,1,0,1.62-1.6h0A1.61,1.61,0,0,0,124.54,145.76Z"></path><path class="cls-32" d="M138,145.32a1.61,1.61,0,1,0,1.63-1.59h0A1.61,1.61,0,0,0,138,145.32Z"></path><path class="cls-32" d="M137.15,138.21l4.3.49a2.3,2.3,0,0,0-1.8-1.89A2.74,2.74,0,0,0,137.15,138.21Z"></path><path class="cls-32" d="M124.54,138.7h4.32a2.26,2.26,0,0,1-2,1.66A2.71,2.71,0,0,1,124.54,138.7Z"></path><circle class="cls-34" cx="130.6" cy="157.53" r="1.54"></circle><circle class="cls-34" cx="130.6" cy="157.53" r="1.54"></circle><path class="cls-29" d="M142.37,179.3l-4,1.86a1.62,1.62,0,0,0-.79,2.15l0,.05h0a1.61,1.61,0,0,0,1.73.87l10-1.79-3.05-3.87Z"></path><path class="cls-29" d="M151.31,182.86l12.6,29.68a8.73,8.73,0,0,0,11.17,4.75h0a8.75,8.75,0,0,0,3.68-13.63L158.17,178a12.37,12.37,0,0,0-2.47-2.32l-6.28-4.43a13.44,13.44,0,0,0-5.95-2.34h0l-3.06-2.25a3.09,3.09,0,0,0-2.91-.39l-4.72,1.82h0a3.08,3.08,0,0,0,3.55,1.71l1.88-.46,2.2,1.62-2.86,4a2.49,2.49,0,0,0,.5,3.42l5.4,4.15a1.94,1.94,0,0,0,1.74.32h0a1.93,1.93,0,0,0,1.32-2.24h0A6.79,6.79,0,0,0,151.31,182.86Z"></path><path class="cls-34" d="M140.41,171a7.31,7.31,0,0,1,2-1.62l-3.79.28Z"></path><polygon class="cls-17" points="310.43 243.34 310.43 333.41 307.24 331.57 307.24 241.5 310.43 243.34"></polygon><polygon class="cls-20" points="310.43 243.34 310.43 333.41 313.61 331.57 313.61 241.5 310.43 243.34"></polygon><polygon class="cls-17" points="307.24 267.36 232.7 224.32 232.7 220.9 307.24 263.94 307.24 267.36"></polygon><polygon class="cls-20" points="307.24 260.32 235.89 219.06 232.7 220.9 307.24 263.94 307.24 260.32"></polygon><polygon class="cls-17" points="85.44 283.58 85.44 373.65 82.26 371.8 82.26 281.74 85.44 283.58"></polygon><polygon class="cls-20" points="85.44 283.58 85.44 373.65 88.63 371.8 88.63 281.74 85.44 283.58"></polygon><polygon class="cls-17" points="163.17 328.47 163.17 418.54 159.99 416.69 159.99 326.63 163.17 328.47"></polygon><polygon class="cls-20" points="163.17 328.47 163.17 418.54 166.36 416.69 166.36 326.63 163.17 328.47"></polygon><polygon class="cls-17" points="159.99 352.49 85.44 309.45 85.44 306.03 159.99 349.06 159.99 352.49"></polygon><polygon class="cls-20" points="159.99 345.45 88.63 304.19 85.44 306.03 159.99 349.06 159.99 345.45"></polygon><g class="cls-18"><polygon class="cls-5" points="85.44 283.58 85.44 373.65 82.26 371.8 82.26 281.74 85.44 283.58"></polygon><polygon class="cls-5" points="85.44 283.58 85.44 373.65 88.63 371.8 88.63 281.74 85.44 283.58"></polygon><polygon class="cls-5" points="163.17 328.47 163.17 418.54 159.99 416.69 159.99 326.63 163.17 328.47"></polygon><polygon class="cls-5" points="163.17 328.47 163.17 418.54 166.36 416.69 166.36 326.63 163.17 328.47"></polygon><polygon class="cls-5" points="159.99 352.49 85.44 309.45 85.44 306.03 159.99 349.06 159.99 352.49"></polygon><polygon class="cls-5" points="159.99 345.45 88.63 304.19 85.44 306.03 159.99 349.06 159.99 345.45"></polygon></g><g class="cls-18"><polygon class="cls-5" points="310.43 243.34 310.43 333.41 307.24 331.57 307.24 241.5 310.43 243.34"></polygon><polygon class="cls-5" points="310.43 243.34 310.43 333.41 313.61 331.57 313.61 241.5 310.43 243.34"></polygon><polygon class="cls-5" points="307.24 267.36 232.7 224.32 232.7 220.9 307.24 263.94 307.24 267.36"></polygon><polygon class="cls-5" points="307.24 260.32 235.89 219.06 232.7 220.9 307.24 263.94 307.24 260.32"></polygon></g><polygon class="cls-3" points="163.17 319.77 313.62 233.06 232.71 186.33 82.26 273.04 163.17 319.77"></polygon><polygon class="cls-3" points="163.17 328.47 313.62 241.5 313.62 233.06 163.17 319.77 163.17 328.47"></polygon><polygon class="cls-3" points="163.17 319.76 82.26 273.03 82.26 281.74 163.17 328.47 163.17 319.76"></polygon><polygon class="cls-15" points="163.17 319.77 313.62 233.06 232.71 186.33 82.26 273.04 163.17 319.77"></polygon><polygon class="cls-28" points="163.17 319.76 82.26 273.03 82.26 281.74 163.17 328.47 163.17 319.76"></polygon><polygon class="cls-22" points="163.17 328.47 313.62 241.5 313.62 233.06 163.17 319.77 163.17 328.47"></polygon><polygon class="cls-35" points="232.71 186.33 82.27 273.03 82.26 273.03 82.26 281.73 163.17 328.47 313.62 241.5 313.62 233.06 232.71 186.33"></polygon><polygon class="cls-2" points="225.16 206.96 237.22 233.34 268.72 228.46 256.65 202.08 225.16 206.96"></polygon><polygon class="cls-27" points="213.33 212.07 240.6 234.31 267.18 223.35 239.92 201.12 213.33 212.07"></polygon><polygon class="cls-5" points="207.75 204.64 191.42 220.99 232.2 234.62 248.55 218.26 207.75 204.64"></polygon><path class="cls-17" d="M232,249.19,199,230a7.44,7.44,0,0,0-6.78,0L137.8,261.45a2.46,2.46,0,0,0-1.4,1.87h0v2.09h0a1.54,1.54,0,0,0,0,.43v.05a1.53,1.53,0,0,0,.23.46h0a2.52,2.52,0,0,0,.41.45h0a3.2,3.2,0,0,0,.61.43l33,19.19a4.61,4.61,0,0,0,1,.42l.36.11.48.12.59.1h.14a5.48,5.48,0,0,0,.81,0h1a5,5,0,0,0,.77-.13H176a5.6,5.6,0,0,0,.66-.21h.12a4,4,0,0,0,.73-.34L232,255a3.81,3.81,0,0,0,.62-.43l.15-.17c.1-.1.2-.21.29-.32a1.28,1.28,0,0,0,.11-.2,1.77,1.77,0,0,0,.15-.31.88.88,0,0,0,0-.23,1.5,1.5,0,0,0,0-.3v-1.94A2.39,2.39,0,0,0,232,249.19Z"></path><path class="cls-9" d="M136.39,263.32a1.67,1.67,0,0,0,.06.59h0a1.8,1.8,0,0,0,.23.46v.05a2.52,2.52,0,0,0,.41.45h0a3.2,3.2,0,0,0,.61.43l33,19.19a4.58,4.58,0,0,0,1,.41,1.38,1.38,0,0,1,.36.12l.48.12.59.1h2a5,5,0,0,0,.77-.13H176a4.5,4.5,0,0,0,.64-.11h.12a4,4,0,0,0,.73-.34L232,253.21a3.81,3.81,0,0,0,.62-.43l.15-.17c.1-.1.2-.21.29-.32s.07-.14.11-.2a1.77,1.77,0,0,0,.15-.31.88.88,0,0,0,0-.23,1.6,1.6,0,0,0,0-.31v1.94a1.5,1.5,0,0,1,0,.3.88.88,0,0,1,0,.23,1.77,1.77,0,0,1-.15.31,1.28,1.28,0,0,1-.11.2c-.09.11-.19.22-.29.32l-.15.17a3.81,3.81,0,0,1-.62.43L177.56,286.5a4,4,0,0,1-.73.34h-.12a4.2,4.2,0,0,1-.66.21h-.14a5,5,0,0,1-.77.13h-1a5.48,5.48,0,0,1-.81,0h-.14l-.59-.1-.48-.12-.36-.11a4.61,4.61,0,0,1-1-.42l-33-19.19a3.2,3.2,0,0,1-.61-.43h0a2.52,2.52,0,0,1-.41-.45h0a1.53,1.53,0,0,1-.23-.46v0a1.54,1.54,0,0,1-.05-.43h0v-2.09Z"></path><path class="cls-20" d="M228.82,251.15,175.91,281.7a1,1,0,0,1-.21.1h-.12a2.77,2.77,0,0,1-.41.12,1.5,1.5,0,0,1-.29.06h-.2a2.26,2.26,0,0,1-.52,0h0a2.44,2.44,0,0,1-.54,0l-.34-.06a3.26,3.26,0,0,1-.43-.11s-.25-.09-.37-.15l-17-9.9,54.66-31.56Z"></path><path class="cls-20" d="M178.48,242.75l10,5.86a1,1,0,0,1,.38,1.37,1,1,0,0,1-.38.37l-14.89,8.59a1.64,1.64,0,0,1-1.66,0l-10-5.85a1,1,0,0,1,0-1.74l14.88-8.6A1.71,1.71,0,0,1,178.48,242.75Z"></path><path class="cls-17" d="M240.93,210.74h0l-1.3-.65h0a1.61,1.61,0,0,0-1.45.09l-54.85,31.89a6.63,6.63,0,0,0-3.21,4.69l-5.64,35.85a1.64,1.64,0,0,0,.92,1.74h0l1.27.65h0a1.6,1.6,0,0,0,1.41-.12L232.91,253a6.63,6.63,0,0,0,3.21-4.7l5.64-35.85A1.64,1.64,0,0,0,240.93,210.74Z"></path><path class="cls-5" d="M211,243.54a12.17,12.17,0,0,0-5.45,7.84c-.35,2.8,1.49,3.84,4.15,2.31a12.09,12.09,0,0,0,5.44-7.84C215.53,243.05,213.67,242,211,243.54Z"></path><path class="cls-9" d="M175.6,283.17l5.64-35.86a6.55,6.55,0,0,1,3.21-4.69l54.84-31.89a1.61,1.61,0,0,1,1.64,0h0l-1.3-.65h0a1.61,1.61,0,0,0-1.45.09l-54.85,31.89a6.63,6.63,0,0,0-3.21,4.69l-5.64,35.85a1.64,1.64,0,0,0,.92,1.74h0l1.27.66h0A1.63,1.63,0,0,1,175.6,283.17Z"></path><path class="cls-29" d="M112,214.5l4.17,18.59L145.08,245a11.93,11.93,0,0,0,5.54.87l11.14-.92a6.21,6.21,0,0,1,3.74.88l6.38,3.87a6.78,6.78,0,0,1,1.7,1.45l3.12,3.7a2.34,2.34,0,0,1-.27,3.29l-.16.12-2,1.41a7,7,0,0,1-7.21.56l-4.94-2.49L154,259.2a16.19,16.19,0,0,1-10.7-1.76l-1.66-.94-35.31-7.45a12.14,12.14,0,0,1-9.31-9.15l-4.71-20.57Z"></path><path class="cls-3" d="M98.06,176c-16.83,6.29-13,21.25-6.79,44.94,10,2.77,21.87-5.94,21.87-5.94C109.84,196.28,108.6,175.72,98.06,176Z"></path><path class="cls-15" d="M98.06,176c-16.83,6.29-13,21.25-6.79,44.94,10,2.77,21.87-5.94,21.87-5.94C109.84,196.28,108.6,175.72,98.06,176Z"></path><g id="freepik--Plant--inject-2"><path class="cls-5" d="M381,337.08l-17.44.51-17.43-.51c-.75,11.77,1.54,23.77,4.71,29.63h0a7.76,7.76,0,0,0,3.45,3.51c5.14,3,13.46,3,18.57,0a7.67,7.67,0,0,0,3.45-3.6C379.43,360.73,381.67,348.79,381,337.08Z"></path><path class="cls-26" d="M375.81,329.94c6.83,3.94,6.87,10.34.08,14.28s-17.83,3.94-24.66,0-6.86-10.34-.08-14.28S369,326,375.81,329.94Z"></path><path class="cls-25" d="M373.11,331.51c5.33,3.07,5.36,8.06.06,11.14s-13.91,3.08-19.23,0-5.36-8.07-.07-11.14S367.78,328.43,373.11,331.51Z"></path><g class="cls-36"><path d="M373.11,331.51c5.33,3.07,5.36,8.06.06,11.14s-13.91,3.08-19.23,0-5.36-8.07-.07-11.14S367.78,328.43,373.11,331.51Z"></path></g><path class="cls-3" d="M392.19,262.68c-39.29,12.86-39.65,39.15-30.79,57.87,2.23,3.79,9,5.82,14.88-17.46L366,304.41l12-6.09,3.12-9.34-10,.74,12.73-5.35A187.52,187.52,0,0,1,392.19,262.68Z"></path><path class="cls-12" d="M392.19,262.68c-39.29,12.86-39.65,39.15-30.79,57.87,2.23,3.79,9,5.82,14.88-17.46L366,304.41l12-6.09,3.12-9.34-10,.74,12.73-5.35A187.52,187.52,0,0,1,392.19,262.68Z"></path><path class="cls-5" d="M381.08,269.25C360.36,285,358.48,303,364.34,321.83,362.27,305.25,360,288.5,381.08,269.25Z"></path><path class="cls-3" d="M325.67,289.38c38.73,5.45,43.43,29.87,38.29,48.78-1.45,3.9-7.41,6.92-16.76-13.79l9.83-.48-12.21-3.68L340.33,312l9.46-1-12.74-2.87A180.67,180.67,0,0,0,325.67,289.38Z"></path><path class="cls-22" d="M325.67,289.38c38.73,5.45,43.43,29.87,38.29,48.78-1.45,3.9-7.41,6.92-16.76-13.79l9.83-.48-12.21-3.68L340.33,312l9.46-1-12.74-2.87A180.67,180.67,0,0,0,325.67,289.38Z"></path><path class="cls-5" d="M337.08,293.65c21.91,11.21,26.65,27.69,24.32,46.19C360.58,324.06,359.88,308.08,337.08,293.65Z"></path><path class="cls-3" d="M403.53,298.53c-35.52.58-42.49,22.07-40,39.68.88,3.68,5.91,7.07,16.65-10.55l-8.81-1.53,11.42-1.95,4.94-6.87-8.42-1.94,11.81-1.16A162.71,162.71,0,0,1,403.53,298.53Z"></path><path class="cls-5" d="M392.73,301.1c-21,7.65-27.11,22-27.09,38.91C368.15,325.88,370.57,311.56,392.73,301.1Z"></path></g></g></g></svg>